<?xml version="1.0" encoding="UTF-8" standalone="no"?>
<svg
   height="24px"
   viewBox="0 0 24 24"
   width="24px"
   fill="#000000"
   version="1.1"
   id="svg6"
   sodipodi:docname="slideshow_black_24dp.svg"
   inkscape:version="1.1.1 (3bf5ae0d25, 2021-09-20)"
   xmlns:inkscape="http://www.inkscape.org/namespaces/inkscape"
   xmlns:sodipodi="http://sodipodi.sourceforge.net/DTD/sodipodi-0.dtd"
   xmlns="http://www.w3.org/2000/svg"
   xmlns:svg="http://www.w3.org/2000/svg">
  <defs
     id="defs10" />
  <sodipodi:namedview
     id="namedview8"
     pagecolor="#ffffff"
     bordercolor="#666666"
     borderopacity="1.0"
     inkscape:pageshadow="2"
     inkscape:pageopacity="0.0"
     inkscape:pagecheckerboard="0"
     showgrid="false"
     inkscape:zoom="29.958333"
     inkscape:cx="12"
     inkscape:cy="12"
     inkscape:window-width="2560"
     inkscape:window-height="1377"
     inkscape:window-x="2552"
     inkscape:window-y="-8"
     inkscape:window-maximized="1"
     inkscape:current-layer="svg6" />
  <path
     d="M0 0h24v24H0z"
     fill="none"
     id="path2" />
  <path
     d="M10 8v8l5-4-5-4zm9-5H5c-1.1 0-2 .9-2 2v14c0 1.1.9 2 2 2h14c1.1 0 2-.9 2-2V5c0-1.1-.9-2-2-2zm0 16H5V5h14v14z"
     id="path4" />
  <path
     style="fill:#000080;stroke-width:0.0333797"
     d="m 10.013908,12 c 0,-2.1663421 0.0076,-3.9388039 0.01689,-3.9388039 0.03265,0 4.906611,3.9125909 4.906611,3.9388039 0,0.02621 -4.873957,3.938804 -4.906611,3.938804 -0.0093,0 -0.01689,-1.772462 -0.01689,-3.938804 z"
     id="path882" />
  <path
     style="fill:#000080;stroke-width:0.0333797"
     d="M 4.472879,20.90101 C 4.1472626,20.804046 3.9172354,20.675941 3.6748029,20.456552 3.4195619,20.225572 3.2495286,19.965344 3.1230016,19.612045 L 3.0208623,19.326843 V 12 4.6731572 L 3.1230016,4.3879554 C 3.3097058,3.8666245 3.6616885,3.4608617 4.122141,3.2361554 4.5972486,3.0042972 3.9911087,3.0208623 12,3.0208623 c 8.008891,0 7.402751,-0.016565 7.877859,0.2152931 0.460453,0.2247063 0.812435,0.6304691 0.999139,1.1518 l 0.10214,0.2852018 V 12 19.326843 l -0.10214,0.285202 c -0.186704,0.52133 -0.538686,0.927093 -0.999139,1.1518 -0.475301,0.231952 0.133626,0.215481 -7.893217,0.213504 l -7.2614153,-0.0018 z M 19.026426,12 V 4.9902643 H 12 4.9735744 V 12 19.009736 H 12 19.026426 Z"
     id="path921" />
</svg>
