<svg aria-roledescription="classDiagram" role="graphics-document document" viewBox="-8 -8 1710.548828125 893" style="max-width: 1710.55px; background-color: white;" xmlns:xlink="http://www.w3.org/1999/xlink" xmlns="http://www.w3.org/2000/svg" width="100%" id="mermaid-1681775705128"><style>#mermaid-1681775705128{font-family:"trebuchet ms",verdana,arial,sans-serif;font-size:16px;fill:#333;}#mermaid-1681775705128 .error-icon{fill:hsl(220.5882352941, 100%, 98.3333333333%);}#mermaid-1681775705128 .error-text{fill:rgb(8.5000000002, 5.7500000001, 0);stroke:rgb(8.5000000002, 5.7500000001, 0);}#mermaid-1681775705128 .edge-thickness-normal{stroke-width:2px;}#mermaid-1681775705128 .edge-thickness-thick{stroke-width:3.5px;}#mermaid-1681775705128 .edge-pattern-solid{stroke-dasharray:0;}#mermaid-1681775705128 .edge-pattern-dashed{stroke-dasharray:3;}#mermaid-1681775705128 .edge-pattern-dotted{stroke-dasharray:2;}#mermaid-1681775705128 .marker{fill:#0b0b0b;stroke:#0b0b0b;}#mermaid-1681775705128 .marker.cross{stroke:#0b0b0b;}#mermaid-1681775705128 svg{font-family:"trebuchet ms",verdana,arial,sans-serif;font-size:16px;}#mermaid-1681775705128 g.classGroup text{fill:hsl(40.5882352941, 60%, 83.3333333333%);fill:#333;stroke:none;font-family:"trebuchet ms",verdana,arial,sans-serif;font-size:10px;}#mermaid-1681775705128 g.classGroup text .title{font-weight:bolder;}#mermaid-1681775705128 .nodeLabel,#mermaid-1681775705128 .edgeLabel{color:#333;}#mermaid-1681775705128 .edgeLabel .label rect{fill:#fff4dd;}#mermaid-1681775705128 .label text{fill:#333;}#mermaid-1681775705128 .edgeLabel .label span{background:#fff4dd;}#mermaid-1681775705128 .classTitle{font-weight:bolder;}#mermaid-1681775705128 .node rect,#mermaid-1681775705128 .node circle,#mermaid-1681775705128 .node ellipse,#mermaid-1681775705128 .node polygon,#mermaid-1681775705128 .node path{fill:#fff4dd;stroke:hsl(40.5882352941, 60%, 83.3333333333%);stroke-width:1px;}#mermaid-1681775705128 .divider{stroke:hsl(40.5882352941, 60%, 83.3333333333%);stroke:1;}#mermaid-1681775705128 g.clickable{cursor:pointer;}#mermaid-1681775705128 g.classGroup rect{fill:#fff4dd;stroke:hsl(40.5882352941, 60%, 83.3333333333%);}#mermaid-1681775705128 g.classGroup line{stroke:hsl(40.5882352941, 60%, 83.3333333333%);stroke-width:1;}#mermaid-1681775705128 .classLabel .box{stroke:none;stroke-width:0;fill:#fff4dd;opacity:0.5;}#mermaid-1681775705128 .classLabel .label{fill:hsl(40.5882352941, 60%, 83.3333333333%);font-size:10px;}#mermaid-1681775705128 .relation{stroke:#0b0b0b;stroke-width:1;fill:none;}#mermaid-1681775705128 .dashed-line{stroke-dasharray:3;}#mermaid-1681775705128 .dotted-line{stroke-dasharray:1 2;}#mermaid-1681775705128 #compositionStart,#mermaid-1681775705128 .composition{fill:#0b0b0b!important;stroke:#0b0b0b!important;stroke-width:1;}#mermaid-1681775705128 #compositionEnd,#mermaid-1681775705128 .composition{fill:#0b0b0b!important;stroke:#0b0b0b!important;stroke-width:1;}#mermaid-1681775705128 #dependencyStart,#mermaid-1681775705128 .dependency{fill:#0b0b0b!important;stroke:#0b0b0b!important;stroke-width:1;}#mermaid-1681775705128 #dependencyStart,#mermaid-1681775705128 .dependency{fill:#0b0b0b!important;stroke:#0b0b0b!important;stroke-width:1;}#mermaid-1681775705128 #extensionStart,#mermaid-1681775705128 .extension{fill:#fff4dd!important;stroke:#0b0b0b!important;stroke-width:1;}#mermaid-1681775705128 #extensionEnd,#mermaid-1681775705128 .extension{fill:#fff4dd!important;stroke:#0b0b0b!important;stroke-width:1;}#mermaid-1681775705128 #aggregationStart,#mermaid-1681775705128 .aggregation{fill:#fff4dd!important;stroke:#0b0b0b!important;stroke-width:1;}#mermaid-1681775705128 #aggregationEnd,#mermaid-1681775705128 .aggregation{fill:#fff4dd!important;stroke:#0b0b0b!important;stroke-width:1;}#mermaid-1681775705128 #lollipopStart,#mermaid-1681775705128 .lollipop{fill:#fff4dd!important;stroke:#0b0b0b!important;stroke-width:1;}#mermaid-1681775705128 #lollipopEnd,#mermaid-1681775705128 .lollipop{fill:#fff4dd!important;stroke:#0b0b0b!important;stroke-width:1;}#mermaid-1681775705128 .edgeTerminals{font-size:11px;}#mermaid-1681775705128 .classTitleText{text-anchor:middle;font-size:18px;fill:#333;}#mermaid-1681775705128 :root{--mermaid-font-family:"trebuchet ms",verdana,arial,sans-serif;}</style><g><defs><marker orient="auto" markerHeight="240" markerWidth="190" refY="7" refX="0" class="marker aggregation classDiagram" id="classDiagram-aggregationStart"><path d="M 18,7 L9,13 L1,7 L9,1 Z"/></marker></defs><defs><marker orient="auto" markerHeight="28" markerWidth="20" refY="7" refX="19" class="marker aggregation classDiagram" id="classDiagram-aggregationEnd"><path d="M 18,7 L9,13 L1,7 L9,1 Z"/></marker></defs><defs><marker orient="auto" markerHeight="240" markerWidth="190" refY="7" refX="0" class="marker extension classDiagram" id="classDiagram-extensionStart"><path d="M 1,7 L18,13 V 1 Z"/></marker></defs><defs><marker orient="auto" markerHeight="28" markerWidth="20" refY="7" refX="19" class="marker extension classDiagram" id="classDiagram-extensionEnd"><path d="M 1,1 V 13 L18,7 Z"/></marker></defs><defs><marker orient="auto" markerHeight="240" markerWidth="190" refY="7" refX="0" class="marker composition classDiagram" id="classDiagram-compositionStart"><path d="M 18,7 L9,13 L1,7 L9,1 Z"/></marker></defs><defs><marker orient="auto" markerHeight="28" markerWidth="20" refY="7" refX="19" class="marker composition classDiagram" id="classDiagram-compositionEnd"><path d="M 18,7 L9,13 L1,7 L9,1 Z"/></marker></defs><defs><marker orient="auto" markerHeight="240" markerWidth="190" refY="7" refX="0" class="marker dependency classDiagram" id="classDiagram-dependencyStart"><path d="M 5,7 L9,13 L1,7 L9,1 Z"/></marker></defs><defs><marker orient="auto" markerHeight="28" markerWidth="20" refY="7" refX="19" class="marker dependency classDiagram" id="classDiagram-dependencyEnd"><path d="M 18,7 L9,13 L14,7 L9,1 Z"/></marker></defs><defs><marker orient="auto" markerHeight="240" markerWidth="190" refY="7" refX="0" class="marker lollipop classDiagram" id="classDiagram-lollipopStart"><circle r="6" cy="7" cx="6" fill="white" stroke="black"/></marker></defs><g class="root"><g class="clusters"/><g class="edgePaths"><path marker-end="url(#classDiagram-extensionEnd)" style="fill:none" class="edge-pattern-solid relation" id="id1" d="M891.16015625,324.4599548787366L841.61328125,338.96662906561386C792.06640625,353.4733032524911,692.97265625,382.48665162624553,652.0750390625,402.74332581312274C611.177421875,423,628.4759375,434.5,637.1251953125001,440.25L645.774453125,446"/><path marker-end="url(#classDiagram-extensionEnd)" style="fill:none" class="edge-pattern-solid relation" id="id2" d="M108.70927868150685,619L114.99731556792237,609.4166666666666C121.2853524543379,599.8333333333334,133.86142622716895,580.6666666666666,220.74060894691783,560.2948431014368C307.6197916666667,539.9230195362069,468.8020833333333,518.3460390724136,549.3932291666666,507.5575488405171L629.984375,496.76905860862047"/><path marker-end="url(#classDiagram-extensionEnd)" style="fill:none" class="edge-pattern-solid relation" id="id3" d="M271.76953125,746L271.76953125,750.1666666666666C271.76953125,754.3333333333334,271.76953125,762.6666666666666,402.1920572916667,776.1708264128762C532.6145833333334,789.6749861590857,793.4596354166666,808.3499723181717,923.8821614583334,817.6874653977146L1054.3046875,827.0249584772575"/><path marker-end="url(#classDiagram-extensionEnd)" style="fill:none" class="edge-pattern-solid relation" id="id4" d="M601.1810609303653,354L605.0695039003044,363.5833333333333C608.9579468702435,373.1666666666667,616.7348328101217,392.3333333333333,626.9240179675609,407.6666666666667C637.113203125,423,649.7146875,434.5,656.0154296874999,440.25L662.316171875,446"/><path marker-end="url(#classDiagram-extensionEnd)" style="fill:none" class="edge-pattern-solid relation" id="id5" d="M525.490234375,641.841803865426L546.5107421875,628.4515032211883C567.53125,615.0612025769507,609.572265625,588.2806012884753,634.8157291666666,569.1403006442376C660.0591927083333,550,668.5051041666667,538.5,672.7280598958333,532.75L676.951015625,527"/><path marker-end="url(#classDiagram-extensionEnd)" style="fill:none" class="edge-pattern-solid relation" id="id6" d="M822.220703125,723L822.220703125,731C822.220703125,739,822.220703125,755,860.9013671875,769.9522246994699C899.58203125,784.90444939894,976.943359375,798.8088987978799,1015.6240234375,805.7611234973498L1054.3046875,812.7133481968198"/><path marker-end="url(#classDiagram-extensionEnd)" style="fill:none" class="edge-pattern-solid relation" id="id7" d="M1106.5267373002282,607.5L1113.3106925418567,599.8333333333334C1120.0946477834855,592.1666666666666,1133.6625582667427,576.8333333333334,1079.8091437167047,558.8433072937449C1025.9557291666667,540.8532812541565,904.6809895833334,520.2065625083129,844.0436197916666,509.8832031353911L783.40625,499.5598437624693"/><path marker-end="url(#classDiagram-extensionEnd)" style="fill:none" class="edge-pattern-solid relation" id="id8" d="M1278.455078125,734.5L1278.455078125,740.5833333333334C1278.455078125,746.6666666666666,1278.455078125,758.8333333333334,1272.6149610368957,769.0833333333334C1266.7748439487914,779.3333333333334,1255.0946097725828,787.6666666666666,1249.2544926844785,791.8333333333334L1243.4143755963742,796"/><path marker-end="url(#classDiagram-extensionEnd)" style="fill:none" class="edge-pattern-solid relation" id="id9" d="M785.5482484303653,354L789.4366914003044,363.5833333333333C793.3251343702435,373.1666666666667,801.1020203101217,392.3333333333333,797.1563877592275,407.6666666666667C793.2107552083334,423,777.5426041666666,434.5,769.7085286458332,440.25L761.874453125,446"/><path marker-end="url(#classDiagram-extensionEnd)" style="fill:none" class="edge-pattern-solid relation" id="id10" d="M1562.205078125,734.5L1562.205078125,740.5833333333334C1562.205078125,746.6666666666666,1562.205078125,758.8333333333334,1521.6695963541667,771.9863700583336C1481.1341145833333,785.1394067833338,1400.0631510416667,799.2788135666675,1359.5276692708333,806.3485169583345L1318.9921875,813.4182203500013"/><path marker-end="url(#classDiagram-compositionEnd)" style="fill:none" class="edge-pattern-solid relation" id="id11" d="M783.40625,460.3865643062303L807.3411458333334,452.2388035885253C831.2760416666666,444.0910428708202,879.1458333333334,427.79552143541014,905.2261076626713,413.89776071770507C931.306381992009,400,935.5971389840182,388.5,937.7425174800228,382.75L939.8878959760274,377"/><path marker-end="url(#classDiagram-compositionEnd)" style="fill:none" class="edge-pattern-solid relation" id="id12" d="M783.40625,469.09248315801915L825.7057291666666,459.49373596501596C868.0052083333334,449.89498877201277,952.6041666666666,430.6974943860064,991.2629227311644,415.3487471930032C1029.921678795662,400,1022.6402325913241,388.5,1018.9995094891551,382.75L1015.3587863869863,377"/><path marker-end="url(#classDiagram-compositionEnd)" style="fill:none" class="edge-pattern-solid relation" id="id13" d="M629.984375,495.2043756796369L532.6080729166666,506.2536463996974C435.2317708333333,517.3029171197579,240.47916666666666,539.401458559879,145.62895084189498,560.0340626132728C50.77873501712329,580.6666666666666,55.83090753424657,599.8333333333334,58.35699379280822,609.4166666666666L60.88308005136986,619"/><path marker-end="url(#classDiagram-compositionEnd)" style="fill:none" class="edge-pattern-solid relation" id="id14" d="M629.984375,499.72828068725806L570.2819010416666,510.0235672393817C510.5794270833333,520.3188537915054,391.1744791666667,540.9094268957527,331.4720052083333,556.9547134478763C271.76953125,573,271.76953125,584.5,271.76953125,590.25L271.76953125,596"/><path marker-end="url(#classDiagram-compositionEnd)" style="fill:none" class="edge-pattern-solid relation" id="id15" d="M629.984375,504.0368513799919L588.0911458333334,513.6140428166599C546.1979166666666,523.1912342533279,462.4114583333333,542.345617126664,429.7379557291667,561.9093761168009C397.064453125,581.473135106938,415.50390625,601.4462702138759,424.7236328125,611.4328377673448L433.943359375,621.4194053208138"/><path marker-end="url(#classDiagram-compositionEnd)" style="fill:none" class="edge-pattern-solid relation" id="id16" d="M629.984375,507.1756415295637L596.3919270833334,516.2297012746363C562.7994791666666,525.2837610197091,495.6145833333333,543.3918805098546,464.71529412813925,558.1959402549272C433.8160049229452,573,439.2023223458904,584.5,441.895481057363,590.25L444.5886397688356,596"/><path marker-end="url(#classDiagram-compositionEnd)" style="fill:none" class="edge-pattern-solid relation" id="id17" d="M769.0790234375,527L777.9359700520832,532.75C786.7929166666667,538.5,804.5068098958333,550,813.3637565104167,565.3333333333334C822.220703125,580.6666666666666,822.220703125,599.8333333333334,822.220703125,609.4166666666666L822.220703125,619"/><path marker-end="url(#classDiagram-compositionEnd)" style="fill:none" class="edge-pattern-solid relation" id="id18" d="M783.40625,508.0541652946987L815.1083984375,516.9618044122489C846.810546875,525.8694435297991,910.21484375,543.6847217648996,947.2884724005899,560.2590275491165C984.3621010511796,576.8333333333334,995.1050614773591,592.1666666666666,1000.4765416904489,599.8333333333334L1005.8480219035388,607.5"/><path marker-end="url(#classDiagram-compositionEnd)" style="fill:none" class="edge-pattern-solid relation" id="id19" d="M783.40625,498.125988664888L853.0989583333334,508.6883238874066C922.7916666666666,519.2506591099253,1062.1770833333333,540.3753295549626,1137.2534424942921,558.604331444148C1212.329801655251,576.8333333333334,1223.0971033105022,592.1666666666666,1228.4807541381278,599.8333333333334L1233.8644049657535,607.5"/><path marker-end="url(#classDiagram-compositionEnd)" style="fill:none" class="edge-pattern-solid relation" id="id20" d="M783.40625,493.22502003328606L913.2060546875,504.60418336107176C1043.005859375,515.9833466888573,1302.60546875,538.7416733444287,1432.4052734375,557.787503338881C1562.205078125,576.8333333333334,1562.205078125,592.1666666666666,1562.205078125,599.8333333333334L1562.205078125,607.5"/><path marker-end="url(#classDiagram-compositionEnd)" style="fill:none" class="edge-pattern-solid relation" id="id21" d="M575.91796875,95.88431641518062L511.8470052083333,111.98693034598385C447.7760416666667,128.08954427678708,319.6341145833333,160.29477213839354,255.56315104166666,185.9807194025301C191.4921875,211.66666666666666,191.4921875,230.83333333333334,191.4921875,240.41666666666666L191.4921875,250"/><path marker-end="url(#classDiagram-compositionEnd)" style="fill:none" class="edge-pattern-solid relation" id="id22" d="M575.91796875,105.55867763405752L542.98828125,120.04889802838126C510.05859375,134.539118422705,444.19921875,163.51955921135252,411.26953125,187.59311293900956C378.33984375,211.66666666666666,378.33984375,230.83333333333334,378.33984375,240.41666666666666L378.33984375,250"/><path marker-end="url(#classDiagram-compositionEnd)" style="fill:none" class="edge-pattern-solid relation" id="id23" d="M678.44921875,99.47722894881673L726.6861979166666,114.98102412401393C774.9231770833334,130.48481929921115,871.3971354166666,161.49240964960558,919.6341145833334,182.7462048248028C967.87109375,204,967.87109375,215.5,967.87109375,221.25L967.87109375,227"/><path marker-end="url(#classDiagram-compositionEnd)" style="fill:none" class="edge-pattern-solid relation" id="id24" d="M575.91796875,123.16652691598189L561.1692708333334,134.72210576331824C546.4205729166666,146.27768461065457,516.9231770833334,169.3888423053273,502.1744791666667,199.19442115266364C487.42578125,229,487.42578125,265.5,487.42578125,302C487.42578125,338.5,487.42578125,375,487.42578125,405.75C487.42578125,436.5,487.42578125,461.5,487.42578125,486.5C487.42578125,511.5,487.42578125,536.5,487.0209715682078,554.75C486.6161618864155,573,485.806542522831,584.5,485.40173284103884,590.25L484.9969231592466,596"/><path marker-end="url(#classDiagram-compositionEnd)" style="fill:none" class="edge-pattern-solid relation" id="id25" d="M678.44921875,94.22611942630378L753.24609375,110.60509952191983C828.04296875,126.98407961753587,977.63671875,159.74203980876794,1052.43359375,194.37101990438396C1127.23046875,229,1127.23046875,265.5,1127.23046875,302C1127.23046875,338.5,1127.23046875,375,1127.23046875,405.75C1127.23046875,436.5,1127.23046875,461.5,1127.23046875,486.5C1127.23046875,511.5,1127.23046875,536.5,1121.8468179223744,556.6666666666666C1116.463167094749,576.8333333333334,1105.6958654394978,592.1666666666666,1100.3122146118722,599.8333333333334L1094.9285637842465,607.5"/><path marker-end="url(#classDiagram-compositionEnd)" style="fill:none" class="edge-pattern-solid relation" id="id26" d="M678.44921875,90.32457524101743L797.6389973958334,107.35381270084785C916.8287760416666,124.3830501606783,1155.2083333333333,158.44152508033915,1274.3981119791667,193.7207625401696C1393.587890625,229,1393.587890625,265.5,1393.587890625,302C1393.587890625,338.5,1393.587890625,375,1393.587890625,405.75C1393.587890625,436.5,1393.587890625,461.5,1393.587890625,486.5C1393.587890625,511.5,1393.587890625,536.5,1385.5268413479832,556.6666666666666C1377.4657920709667,576.8333333333334,1361.3436935169332,592.1666666666666,1353.2826442399164,599.8333333333334L1345.2215949628996,607.5"/><path marker-end="url(#classDiagram-compositionEnd)" style="fill:none" class="edge-pattern-solid relation" id="id27" d="M678.44921875,123.89578827546956L692.7825520833334,135.3298235628913C707.1158854166666,146.76385885031303,735.7825520833334,169.63192942515653,750.1158854166666,190.6492980459116C764.44921875,211.66666666666666,764.44921875,230.83333333333334,764.44921875,240.41666666666666L764.44921875,250"/></g><g class="edgeLabels"><g class="edgeLabel"><g transform="translate(0, 0)" class="label"><rect height="0" width="0" ry="0" rx="0"/><text style=""><tspan class="row" x="0" dy="1em" xml:space="preserve"/></text></g></g><g class="edgeLabel"><g transform="translate(0, 0)" class="label"><rect height="0" width="0" ry="0" rx="0"/><text style=""><tspan class="row" x="0" dy="1em" xml:space="preserve"/></text></g></g><g class="edgeLabel"><g transform="translate(0, 0)" class="label"><rect height="0" width="0" ry="0" rx="0"/><text style=""><tspan class="row" x="0" dy="1em" xml:space="preserve"/></text></g></g><g class="edgeLabel"><g transform="translate(0, 0)" class="label"><rect height="0" width="0" ry="0" rx="0"/><text style=""><tspan class="row" x="0" dy="1em" xml:space="preserve"/></text></g></g><g class="edgeLabel"><g transform="translate(0, 0)" class="label"><rect height="0" width="0" ry="0" rx="0"/><text style=""><tspan class="row" x="0" dy="1em" xml:space="preserve"/></text></g></g><g class="edgeLabel"><g transform="translate(0, 0)" class="label"><rect height="0" width="0" ry="0" rx="0"/><text style=""><tspan class="row" x="0" dy="1em" xml:space="preserve"/></text></g></g><g class="edgeLabel"><g transform="translate(0, 0)" class="label"><rect height="0" width="0" ry="0" rx="0"/><text style=""><tspan class="row" x="0" dy="1em" xml:space="preserve"/></text></g></g><g class="edgeLabel"><g transform="translate(0, 0)" class="label"><rect height="0" width="0" ry="0" rx="0"/><text style=""><tspan class="row" x="0" dy="1em" xml:space="preserve"/></text></g></g><g class="edgeLabel"><g transform="translate(0, 0)" class="label"><rect height="0" width="0" ry="0" rx="0"/><text style=""><tspan class="row" x="0" dy="1em" xml:space="preserve"/></text></g></g><g class="edgeLabel"><g transform="translate(0, 0)" class="label"><rect height="0" width="0" ry="0" rx="0"/><text style=""><tspan class="row" x="0" dy="1em" xml:space="preserve"/></text></g></g><g transform="translate(927.015625, 411.5)" class="edgeLabel"><g transform="translate(-12.8515625, -9.5)" class="label"><rect height="19.636863708496094" width="25.891773223876953" ry="0" rx="0"/><text style=""><tspan class="row" x="0" dy="1em" xml:space="preserve">left</tspan></text></g></g><g transform="translate(1037.203125, 411.5)" class="edgeLabel"><g transform="translate(-16.953125, -9.5)" class="label"><rect height="19.636863708496094" width="34.081459045410156" ry="0" rx="0"/><text style=""><tspan class="row" x="0" dy="1em" xml:space="preserve">right</tspan></text></g></g><g transform="translate(45.7265625, 561.5)" class="edgeLabel"><g transform="translate(-37.7265625, -9.5)" class="label"><rect height="19.636863708496094" width="75.4110107421875" ry="0" rx="0"/><text style=""><tspan class="row" x="0" dy="1em" xml:space="preserve">expression</tspan></text></g></g><g transform="translate(271.76953125, 561.5)" class="edgeLabel"><g transform="translate(-33.484375, -9.5)" class="label"><rect height="19.636863708496094" width="66.92215728759766" ry="0" rx="0"/><text style=""><tspan class="row" x="0" dy="1em" xml:space="preserve">condition</tspan></text></g></g><g transform="translate(378.625, 561.5)" class="edgeLabel"><g transform="translate(-12.8515625, -9.5)" class="label"><rect height="19.636863708496094" width="25.891773223876953" ry="0" rx="0"/><text style=""><tspan class="row" x="0" dy="1em" xml:space="preserve">left</tspan></text></g></g><g transform="translate(428.4296875, 561.5)" class="edgeLabel"><g transform="translate(-16.953125, -9.5)" class="label"><rect height="19.636863708496094" width="34.081459045410156" ry="0" rx="0"/><text style=""><tspan class="row" x="0" dy="1em" xml:space="preserve">right</tspan></text></g></g><g transform="translate(822.220703125, 561.5)" class="edgeLabel"><g transform="translate(-37.7265625, -9.5)" class="label"><rect height="19.636863708496094" width="75.4110107421875" ry="0" rx="0"/><text style=""><tspan class="row" x="0" dy="1em" xml:space="preserve">expression</tspan></text></g></g><g transform="translate(973.619140625, 561.5)" class="edgeLabel"><g transform="translate(-16.953125, -9.5)" class="label"><rect height="19.636863708496094" width="34.081459045410156" ry="0" rx="0"/><text style=""><tspan class="row" x="0" dy="1em" xml:space="preserve">right</tspan></text></g></g><g transform="translate(1201.5625, 561.5)" class="edgeLabel"><g transform="translate(-34.33203125, -9.5)" class="label"><rect height="19.636863708496094" width="68.16751098632812" ry="0" rx="0"/><text style=""><tspan class="row" x="0" dy="1em" xml:space="preserve">initialiser</tspan></text></g></g><g transform="translate(1562.205078125, 561.5)" class="edgeLabel"><g transform="translate(-33.484375, -9.5)" class="label"><rect height="19.636863708496094" width="66.92215728759766" ry="0" rx="0"/><text style=""><tspan class="row" x="0" dy="1em" xml:space="preserve">condition</tspan></text></g></g><g transform="translate(191.4921875, 192.5)" class="edgeLabel"><g transform="translate(-20.234375, -9.5)" class="label"><rect height="19.636863708496094" width="40.466941833496094" ry="0" rx="0"/><text style=""><tspan class="row" x="0" dy="1em" xml:space="preserve">token</tspan></text></g></g><g transform="translate(378.33984375, 192.5)" class="edgeLabel"><g transform="translate(-20.234375, -9.5)" class="label"><rect height="19.636863708496094" width="40.466941833496094" ry="0" rx="0"/><text style=""><tspan class="row" x="0" dy="1em" xml:space="preserve">token</tspan></text></g></g><g transform="translate(967.87109375, 192.5)" class="edgeLabel"><g transform="translate(-31.390625, -9.5)" class="label"><rect height="19.636863708496094" width="62.28874206542969" ry="0" rx="0"/><text style=""><tspan class="row" x="0" dy="1em" xml:space="preserve">operator</tspan></text></g></g><g transform="translate(487.42578125, 411.5)" class="edgeLabel"><g transform="translate(-31.390625, -9.5)" class="label"><rect height="19.636863708496094" width="62.28874206542969" ry="0" rx="0"/><text style=""><tspan class="row" x="0" dy="1em" xml:space="preserve">operator</tspan></text></g></g><g transform="translate(1127.23046875, 411.5)" class="edgeLabel"><g transform="translate(-31.390625, -9.5)" class="label"><rect height="19.636863708496094" width="62.28874206542969" ry="0" rx="0"/><text style=""><tspan class="row" x="0" dy="1em" xml:space="preserve">operator</tspan></text></g></g><g transform="translate(1393.587890625, 411.5)" class="edgeLabel"><g transform="translate(-19.71484375, -9.5)" class="label"><rect height="19.636863708496094" width="39.137359619140625" ry="0" rx="0"/><text style=""><tspan class="row" x="0" dy="1em" xml:space="preserve">name</tspan></text></g></g><g transform="translate(764.44921875, 192.5)" class="edgeLabel"><g transform="translate(-19.71484375, -9.5)" class="label"><rect height="19.636863708496094" width="39.137359619140625" ry="0" rx="0"/><text style=""><tspan class="row" x="0" dy="1em" xml:space="preserve">name</tspan></text></g></g></g><g class="nodes"><g transform="translate(191.4921875, 302)" id="classId-AQAParseError-0" class="node default"><rect height="104" width="125.5234375" y="-52" x="-62.76171875" class="outer title-state"/><line y2="-21" y1="-21" x2="62.76171875" x1="-62.76171875" class="divider"/><line y2="41" y1="41" x2="62.76171875" x1="-62.76171875" class="divider"/><g class="label"><text style=""><tspan class="title-row" x="0" dy="1em" xml:space="preserve"/></text><text transform="translate( -55.26171875, -44.5)" class="classTitle" style=""><tspan class="title-row" x="0" dy="1em" xml:space="preserve">AQAParseError</tspan></text><text transform="translate( -55.26171875, -9.5)" style=""><tspan class="title-row" x="0" dy="1em" xml:space="preserve">message : str</tspan></text><text transform="translate( -55.26171875, 13.5)" style=""><tspan class="title-row" x="0" dy="1em" xml:space="preserve">token</tspan></text></g></g><g transform="translate(378.33984375, 302)" id="classId-AQARuntimeError-1" class="node default"><rect height="104" width="148.171875" y="-52" x="-74.0859375" class="outer title-state"/><line y2="-21" y1="-21" x2="74.0859375" x1="-74.0859375" class="divider"/><line y2="41" y1="41" x2="74.0859375" x1="-74.0859375" class="divider"/><g class="label"><text style=""><tspan class="title-row" x="0" dy="1em" xml:space="preserve"/></text><text transform="translate( -66.5859375, -44.5)" class="classTitle" style=""><tspan class="title-row" x="0" dy="1em" xml:space="preserve">AQARuntimeError</tspan></text><text transform="translate( -66.5859375, -9.5)" style=""><tspan class="title-row" x="0" dy="1em" xml:space="preserve">message : str</tspan></text><text transform="translate( -66.5859375, 13.5)" style=""><tspan class="title-row" x="0" dy="1em" xml:space="preserve">token</tspan></text></g></g><g transform="translate(967.87109375, 302)" id="classId-Binary-2" class="node default"><rect height="150" width="153.421875" y="-75" x="-76.7109375" class="outer title-state"/><line y2="-44" y1="-44" x2="76.7109375" x1="-76.7109375" class="divider"/><line y2="41" y1="41" x2="76.7109375" x1="-76.7109375" class="divider"/><g class="label"><text style=""><tspan class="title-row" x="0" dy="1em" xml:space="preserve"/></text><text transform="translate( -24.05078125, -67.5)" class="classTitle" style=""><tspan class="title-row" x="0" dy="1em" xml:space="preserve">Binary</tspan></text><text transform="translate( -69.2109375, -32.5)" style=""><tspan class="title-row" x="0" dy="1em" xml:space="preserve">left</tspan></text><text transform="translate( -69.2109375, -9.5)" style=""><tspan class="title-row" x="0" dy="1em" xml:space="preserve">operator</tspan></text><text transform="translate( -69.2109375, 13.5)" style=""><tspan class="title-row" x="0" dy="1em" xml:space="preserve">right</tspan></text><text transform="translate( -69.2109375, 48.5)" style=""><tspan class="title-row" x="0" dy="1em" xml:space="preserve">interpret() : object</tspan></text></g></g><g transform="translate(706.6953125, 486.5)" id="classId-Expr-3" class="node default"><rect height="81" width="153.421875" y="-40.5" x="-76.7109375" class="outer title-state"/><line y2="-9.5" y1="-9.5" x2="76.7109375" x1="-76.7109375" class="divider"/><line y2="6.5" y1="6.5" x2="76.7109375" x1="-76.7109375" class="divider"/><g class="label"><text style=""><tspan class="title-row" x="0" dy="1em" xml:space="preserve"/></text><text transform="translate( -17.12890625, -33)" class="classTitle" style=""><tspan class="title-row" x="0" dy="1em" xml:space="preserve">Expr</tspan></text><text transform="translate( -69.2109375, 14)" style=""><tspan class="title-row" x="0" dy="1em" xml:space="preserve">interpret() : object</tspan></text></g></g><g transform="translate(74.58984375, 671)" id="classId-Grouping-4" class="node default"><rect height="104" width="91.546875" y="-52" x="-45.7734375" class="outer title-state"/><line y2="-21" y1="-21" x2="45.7734375" x1="-45.7734375" class="divider"/><line y2="18" y1="18" x2="45.7734375" x1="-45.7734375" class="divider"/><g class="label"><text style=""><tspan class="title-row" x="0" dy="1em" xml:space="preserve"/></text><text transform="translate( -33.828125, -44.5)" class="classTitle" style=""><tspan class="title-row" x="0" dy="1em" xml:space="preserve">Grouping</tspan></text><text transform="translate( -38.2734375, -9.5)" style=""><tspan class="title-row" x="0" dy="1em" xml:space="preserve">expression</tspan></text><text transform="translate( -38.2734375, 25.5)" style=""><tspan class="title-row" x="0" dy="1em" xml:space="preserve">interpret()</tspan></text></g></g><g transform="translate(271.76953125, 671)" id="classId-If-5" class="node default"><rect height="150" width="202.8125" y="-75" x="-101.40625" class="outer title-state"/><line y2="-44" y1="-44" x2="101.40625" x1="-101.40625" class="divider"/><line y2="41" y1="41" x2="101.40625" x1="-101.40625" class="divider"/><g class="label"><text style=""><tspan class="title-row" x="0" dy="1em" xml:space="preserve"/></text><text transform="translate( -5.7265625, -67.5)" class="classTitle" style=""><tspan class="title-row" x="0" dy="1em" xml:space="preserve">If</tspan></text><text transform="translate( -93.90625, -32.5)" style=""><tspan class="title-row" x="0" dy="1em" xml:space="preserve">condition</tspan></text><text transform="translate( -93.90625, -9.5)" style=""><tspan class="title-row" x="0" dy="1em" xml:space="preserve">else_branch : list[Stmt]</tspan></text><text transform="translate( -93.90625, 13.5)" style=""><tspan class="title-row" x="0" dy="1em" xml:space="preserve">then_branch : list[Stmt]</tspan></text><text transform="translate( -93.90625, 48.5)" style=""><tspan class="title-row" x="0" dy="1em" xml:space="preserve">interpret(output: list[str])</tspan></text></g></g><g transform="translate(580.08203125, 302)" id="classId-Literal-6" class="node default"><rect height="104" width="115.3125" y="-52" x="-57.65625" class="outer title-state"/><line y2="-21" y1="-21" x2="57.65625" x1="-57.65625" class="divider"/><line y2="18" y1="18" x2="57.65625" x1="-57.65625" class="divider"/><g class="label"><text style=""><tspan class="title-row" x="0" dy="1em" xml:space="preserve"/></text><text transform="translate( -24.5078125, -44.5)" class="classTitle" style=""><tspan class="title-row" x="0" dy="1em" xml:space="preserve">Literal</tspan></text><text transform="translate( -50.15625, -9.5)" style=""><tspan class="title-row" x="0" dy="1em" xml:space="preserve">value : object</tspan></text><text transform="translate( -50.15625, 25.5)" style=""><tspan class="title-row" x="0" dy="1em" xml:space="preserve">interpret()</tspan></text></g></g><g transform="translate(479.716796875, 671)" id="classId-Logical-7" class="node default"><rect height="150" width="91.546875" y="-75" x="-45.7734375" class="outer title-state"/><line y2="-44" y1="-44" x2="45.7734375" x1="-45.7734375" class="divider"/><line y2="41" y1="41" x2="45.7734375" x1="-45.7734375" class="divider"/><g class="label"><text style=""><tspan class="title-row" x="0" dy="1em" xml:space="preserve"/></text><text transform="translate( -26.20703125, -67.5)" class="classTitle" style=""><tspan class="title-row" x="0" dy="1em" xml:space="preserve">Logical</tspan></text><text transform="translate( -38.2734375, -32.5)" style=""><tspan class="title-row" x="0" dy="1em" xml:space="preserve">left</tspan></text><text transform="translate( -38.2734375, -9.5)" style=""><tspan class="title-row" x="0" dy="1em" xml:space="preserve">operator</tspan></text><text transform="translate( -38.2734375, 13.5)" style=""><tspan class="title-row" x="0" dy="1em" xml:space="preserve">right</tspan></text><text transform="translate( -38.2734375, 48.5)" style=""><tspan class="title-row" x="0" dy="1em" xml:space="preserve">interpret()</tspan></text></g></g><g transform="translate(822.220703125, 671)" id="classId-Print-8" class="node default"><rect height="104" width="202.8125" y="-52" x="-101.40625" class="outer title-state"/><line y2="-21" y1="-21" x2="101.40625" x1="-101.40625" class="divider"/><line y2="18" y1="18" x2="101.40625" x1="-101.40625" class="divider"/><g class="label"><text style=""><tspan class="title-row" x="0" dy="1em" xml:space="preserve"/></text><text transform="translate( -18.3984375, -44.5)" class="classTitle" style=""><tspan class="title-row" x="0" dy="1em" xml:space="preserve">Print</tspan></text><text transform="translate( -93.90625, -9.5)" style=""><tspan class="title-row" x="0" dy="1em" xml:space="preserve">expression</tspan></text><text transform="translate( -93.90625, 25.5)" style=""><tspan class="title-row" x="0" dy="1em" xml:space="preserve">interpret(output: list[str])</tspan></text></g></g><g transform="translate(1186.6484375, 836.5)" id="classId-Stmt-9" class="node default"><rect height="81" width="264.6875" y="-40.5" x="-132.34375" class="outer title-state"/><line y2="-9.5" y1="-9.5" x2="132.34375" x1="-132.34375" class="divider"/><line y2="6.5" y1="6.5" x2="132.34375" x1="-132.34375" class="divider"/><g class="label"><text style=""><tspan class="title-row" x="0" dy="1em" xml:space="preserve"/></text><text transform="translate( -17.3125, -33)" class="classTitle" style=""><tspan class="title-row" x="0" dy="1em" xml:space="preserve">Stmt</tspan></text><text transform="translate( -124.84375, 14)" style=""><tspan class="title-row" x="0" dy="1em" xml:space="preserve">interpret(output: list[str]) : object</tspan></text></g></g><g transform="translate(627.18359375, 83)" id="classId-Token-10" class="node default"><rect height="150" width="102.53125" y="-75" x="-51.265625" class="outer title-state"/><line y2="-44" y1="-44" x2="51.265625" x1="-51.265625" class="divider"/><line y2="64" y1="64" x2="51.265625" x1="-51.265625" class="divider"/><g class="label"><text style=""><tspan class="title-row" x="0" dy="1em" xml:space="preserve"/></text><text transform="translate( -22.09375, -67.5)" class="classTitle" style=""><tspan class="title-row" x="0" dy="1em" xml:space="preserve">Token</tspan></text><text transform="translate( -43.765625, -32.5)" style=""><tspan class="title-row" x="0" dy="1em" xml:space="preserve">lexeme : str</tspan></text><text transform="translate( -43.765625, -9.5)" style=""><tspan class="title-row" x="0" dy="1em" xml:space="preserve">line : int</tspan></text><text transform="translate( -43.765625, 13.5)" style=""><tspan class="title-row" x="0" dy="1em" xml:space="preserve">literal : str</tspan></text><text transform="translate( -43.765625, 36.5)" style=""><tspan class="title-row" x="0" dy="1em" xml:space="preserve">type : str</tspan></text></g></g><g transform="translate(1050.337890625, 671)" id="classId-Unary-11" class="node default"><rect height="127" width="153.421875" y="-63.5" x="-76.7109375" class="outer title-state"/><line y2="-32.5" y1="-32.5" x2="76.7109375" x1="-76.7109375" class="divider"/><line y2="29.5" y1="29.5" x2="76.7109375" x1="-76.7109375" class="divider"/><g class="label"><text style=""><tspan class="title-row" x="0" dy="1em" xml:space="preserve"/></text><text transform="translate( -22.32421875, -56)" class="classTitle" style=""><tspan class="title-row" x="0" dy="1em" xml:space="preserve">Unary</tspan></text><text transform="translate( -69.2109375, -21)" style=""><tspan class="title-row" x="0" dy="1em" xml:space="preserve">operator</tspan></text><text transform="translate( -69.2109375, 2)" style=""><tspan class="title-row" x="0" dy="1em" xml:space="preserve">right</tspan></text><text transform="translate( -69.2109375, 37)" style=""><tspan class="title-row" x="0" dy="1em" xml:space="preserve">interpret() : object</tspan></text></g></g><g transform="translate(1278.455078125, 671)" id="classId-Var-12" class="node default"><rect height="127" width="202.8125" y="-63.5" x="-101.40625" class="outer title-state"/><line y2="-32.5" y1="-32.5" x2="101.40625" x1="-101.40625" class="divider"/><line y2="29.5" y1="29.5" x2="101.40625" x1="-101.40625" class="divider"/><g class="label"><text style=""><tspan class="title-row" x="0" dy="1em" xml:space="preserve"/></text><text transform="translate( -12.140625, -56)" class="classTitle" style=""><tspan class="title-row" x="0" dy="1em" xml:space="preserve">Var</tspan></text><text transform="translate( -93.90625, -21)" style=""><tspan class="title-row" x="0" dy="1em" xml:space="preserve">initialiser</tspan></text><text transform="translate( -93.90625, 2)" style=""><tspan class="title-row" x="0" dy="1em" xml:space="preserve">name</tspan></text><text transform="translate( -93.90625, 37)" style=""><tspan class="title-row" x="0" dy="1em" xml:space="preserve">interpret(output: list[str])</tspan></text></g></g><g transform="translate(764.44921875, 302)" id="classId-Variable-13" class="node default"><rect height="104" width="153.421875" y="-52" x="-76.7109375" class="outer title-state"/><line y2="-21" y1="-21" x2="76.7109375" x1="-76.7109375" class="divider"/><line y2="18" y1="18" x2="76.7109375" x1="-76.7109375" class="divider"/><g class="label"><text style=""><tspan class="title-row" x="0" dy="1em" xml:space="preserve"/></text><text transform="translate( -30.3203125, -44.5)" class="classTitle" style=""><tspan class="title-row" x="0" dy="1em" xml:space="preserve">Variable</tspan></text><text transform="translate( -69.2109375, -9.5)" style=""><tspan class="title-row" x="0" dy="1em" xml:space="preserve">name</tspan></text><text transform="translate( -69.2109375, 25.5)" style=""><tspan class="title-row" x="0" dy="1em" xml:space="preserve">interpret() : object</tspan></text></g></g><g transform="translate(1562.205078125, 671)" id="classId-While-14" class="node default"><rect height="127" width="264.6875" y="-63.5" x="-132.34375" class="outer title-state"/><line y2="-32.5" y1="-32.5" x2="132.34375" x1="-132.34375" class="divider"/><line y2="29.5" y1="29.5" x2="132.34375" x1="-132.34375" class="divider"/><g class="label"><text style=""><tspan class="title-row" x="0" dy="1em" xml:space="preserve"/></text><text transform="translate( -21.15625, -56)" class="classTitle" style=""><tspan class="title-row" x="0" dy="1em" xml:space="preserve">While</tspan></text><text transform="translate( -124.84375, -21)" style=""><tspan class="title-row" x="0" dy="1em" xml:space="preserve">body : list[Stmt]</tspan></text><text transform="translate( -124.84375, 2)" style=""><tspan class="title-row" x="0" dy="1em" xml:space="preserve">condition</tspan></text><text transform="translate( -124.84375, 37)" style=""><tspan class="title-row" x="0" dy="1em" xml:space="preserve">interpret(output: list[str]) : object</tspan></text></g></g></g></g></g></svg>