<svg xmlns='http://www.w3.org/2000/svg' class="pikchr" viewBox="0 0 726.648 234.36">
<circle cx="27" cy="5" r="3.6"  style="fill:none;stroke-width:2.16;stroke:rgb(0,0,0);" />
<polygon points="27,45 23,33 32,33" style="fill:rgb(0,0,0)"/>
<path d="M27,9L27,39"  style="fill:none;stroke-width:2.16;stroke:rgb(0,0,0);" />
<path d="M18,75L36,75A15 15 0 0 0 51 60A15 15 0 0 0 36 45L18,45A15 15 0 0 0 3 60A15 15 0 0 0 18 75Z"  style="fill:none;stroke-width:2.16;stroke:rgb(0,0,0);" />
<text x="27" y="60" text-anchor="middle" fill="rgb(0,0,0)" dominant-baseline="central">FOR</text>
<polygon points="87,60 76,64 76,56" style="fill:rgb(0,0,0)"/>
<path d="M51,60L82,60"  style="fill:none;stroke-width:2.16;stroke:rgb(0,0,0);" />
<path d="M87,75L268,75L268,45L87,45Z"  style="fill:none;stroke-width:2.16;stroke:rgb(0,0,0);" />
<text x="178" y="60" text-anchor="middle" fill="rgb(0,0,0)" dominant-baseline="central">variable declaration</text>
<polygon points="304,60 292,64 292,56" style="fill:rgb(0,0,0)"/>
<path d="M268,60L298,60"  style="fill:none;stroke-width:2.16;stroke:rgb(0,0,0);" />
<path d="M319,75L325,75A15 15 0 0 0 340 60A15 15 0 0 0 325 45L319,45A15 15 0 0 0 304 60A15 15 0 0 0 319 75Z"  style="fill:none;stroke-width:2.16;stroke:rgb(0,0,0);" />
<text x="322" y="60" text-anchor="middle" fill="rgb(0,0,0)" dominant-baseline="central">TO</text>
<polygon points="376,60 364,64 364,56" style="fill:rgb(0,0,0)"/>
<path d="M340,60L370,60"  style="fill:none;stroke-width:2.16;stroke:rgb(0,0,0);" />
<path d="M376,75L478,75L478,45L376,45Z"  style="fill:none;stroke-width:2.16;stroke:rgb(0,0,0);" />
<text x="427" y="60" text-anchor="middle" fill="rgb(0,0,0)" dominant-baseline="central">expression</text>
<path d="M529,113L556,113A15 15 0 0 0 571 98A15 15 0 0 0 556 83L529,83A15 15 0 0 0 514 98A15 15 0 0 0 529 113Z"  style="fill:none;stroke-width:2.16;stroke:rgb(0,0,0);" />
<text x="542" y="98" text-anchor="middle" fill="rgb(0,0,0)" dominant-baseline="central">STEP</text>
<path d="M607,113L709,113L709,83L607,83Z"  style="fill:none;stroke-width:2.16;stroke:rgb(0,0,0);" />
<text x="658" y="98" text-anchor="middle" fill="rgb(0,0,0)" dominant-baseline="central">expression</text>
<path d="M125,151L231,151L231,120L125,120Z"  style="fill:none;stroke-width:2.16;stroke:rgb(0,0,0);" />
<text x="178" y="136" text-anchor="middle" fill="rgb(0,0,0)" dominant-baseline="central">delarations</text>
<polygon points="231,136 242,131 242,140" style="fill:rgb(0,0,0)"/>
<path d="M478,60 L 709,60 Q 724,60 724,75 L 724,121 Q 724,136 709,136 L 252,136 L 237,136"  style="fill:none;stroke-width:2.16;stroke:rgb(0,0,0);" />
<polygon points="514,98 503,102 503,93" style="fill:rgb(0,0,0)"/>
<path d="M478,60 L 486,60 Q 493,60 493,75 L 493,83 Q 493,98 501,98 L 508,98"  style="fill:none;stroke-width:2.16;stroke:rgb(0,0,0);" />
<polygon points="607,98 595,102 595,93" style="fill:rgb(0,0,0)"/>
<path d="M571,98L601,98"  style="fill:none;stroke-width:2.16;stroke:rgb(0,0,0);" />
<path d="M709,98 L 716,98 Q 724,98 724,105 L 724,113"  style="fill:none;stroke-width:2.16;stroke:rgb(0,0,0);" />
<path d="M2,189L53,189L53,158L2,158Z"  style="fill:none;stroke-width:2.16;stroke:rgb(0,0,0);" />
<text x="27" y="173" text-anchor="middle" fill="rgb(0,0,0)" dominant-baseline="central">END</text>
<polygon points="27,158 23,147 32,147" style="fill:rgb(0,0,0)"/>
<path d="M125,136 L 42,136 Q 27,136 27,144 L 27,153"  style="fill:none;stroke-width:2.16;stroke:rgb(0,0,0);" />
<circle cx="27" cy="228" r="3.6"  style="fill:none;stroke-width:2.16;stroke:rgb(0,0,0);" />
<polygon points="27,225 23,213 32,213" style="fill:rgb(0,0,0)"/>
<path d="M27,189L27,219"  style="fill:none;stroke-width:2.16;stroke:rgb(0,0,0);" />
</svg>
