<svg aria-roledescription="flowchart-v2" role="graphics-document document" viewBox="-8 -8 858.68359375 508" style="max-width: 858.684px; background-color: white;" xmlns:xlink="http://www.w3.org/1999/xlink" xmlns="http://www.w3.org/2000/svg" width="100%" id="mermaid-1681775709521"><style>#mermaid-1681775709521{font-family:"trebuchet ms",verdana,arial,sans-serif;font-size:16px;fill:#333;}#mermaid-1681775709521 .error-icon{fill:hsl(220.5882352941, 100%, 98.3333333333%);}#mermaid-1681775709521 .error-text{fill:rgb(8.5000000002, 5.7500000001, 0);stroke:rgb(8.5000000002, 5.7500000001, 0);}#mermaid-1681775709521 .edge-thickness-normal{stroke-width:2px;}#mermaid-1681775709521 .edge-thickness-thick{stroke-width:3.5px;}#mermaid-1681775709521 .edge-pattern-solid{stroke-dasharray:0;}#mermaid-1681775709521 .edge-pattern-dashed{stroke-dasharray:3;}#mermaid-1681775709521 .edge-pattern-dotted{stroke-dasharray:2;}#mermaid-1681775709521 .marker{fill:#0b0b0b;stroke:#0b0b0b;}#mermaid-1681775709521 .marker.cross{stroke:#0b0b0b;}#mermaid-1681775709521 svg{font-family:"trebuchet ms",verdana,arial,sans-serif;font-size:16px;}#mermaid-1681775709521 .label{font-family:"trebuchet ms",verdana,arial,sans-serif;color:#333;}#mermaid-1681775709521 .cluster-label text{fill:rgb(8.5000000002, 5.7500000001, 0);}#mermaid-1681775709521 .cluster-label span,#mermaid-1681775709521 p{color:rgb(8.5000000002, 5.7500000001, 0);}#mermaid-1681775709521 .label text,#mermaid-1681775709521 span,#mermaid-1681775709521 p{fill:#333;color:#333;}#mermaid-1681775709521 .node rect,#mermaid-1681775709521 .node circle,#mermaid-1681775709521 .node ellipse,#mermaid-1681775709521 .node polygon,#mermaid-1681775709521 .node path{fill:#fff4dd;stroke:hsl(40.5882352941, 60%, 83.3333333333%);stroke-width:1px;}#mermaid-1681775709521 .flowchart-label text{text-anchor:middle;}#mermaid-1681775709521 .node .label{text-align:center;}#mermaid-1681775709521 .node.clickable{cursor:pointer;}#mermaid-1681775709521 .arrowheadPath{fill:undefined;}#mermaid-1681775709521 .edgePath .path{stroke:#0b0b0b;stroke-width:2.0px;}#mermaid-1681775709521 .flowchart-link{stroke:#0b0b0b;fill:none;}#mermaid-1681775709521 .edgeLabel{background-color:hsl(-79.4117647059, 100%, 93.3333333333%);text-align:center;}#mermaid-1681775709521 .edgeLabel rect{opacity:0.5;background-color:hsl(-79.4117647059, 100%, 93.3333333333%);fill:hsl(-79.4117647059, 100%, 93.3333333333%);}#mermaid-1681775709521 .cluster rect{fill:hsl(220.5882352941, 100%, 98.3333333333%);stroke:hsl(220.5882352941, 60%, 88.3333333333%);stroke-width:1px;}#mermaid-1681775709521 .cluster text{fill:rgb(8.5000000002, 5.7500000001, 0);}#mermaid-1681775709521 .cluster span,#mermaid-1681775709521 p{color:rgb(8.5000000002, 5.7500000001, 0);}#mermaid-1681775709521 div.mermaidTooltip{position:absolute;text-align:center;max-width:200px;padding:2px;font-family:"trebuchet ms",verdana,arial,sans-serif;font-size:12px;background:hsl(220.5882352941, 100%, 98.3333333333%);border:1px solid undefined;border-radius:2px;pointer-events:none;z-index:100;}#mermaid-1681775709521 .flowchartTitleText{text-anchor:middle;font-size:18px;fill:#333;}#mermaid-1681775709521 :root{--mermaid-font-family:"trebuchet ms",verdana,arial,sans-serif;}</style><g><marker orient="auto" markerHeight="12" markerWidth="12" markerUnits="userSpaceOnUse" refY="5" refX="10" viewBox="0 0 12 20" class="marker flowchart" id="flowchart-pointEnd"><path style="stroke-width: 1; stroke-dasharray: 1, 0;" class="arrowMarkerPath" d="M 0 0 L 10 5 L 0 10 z"/></marker><marker orient="auto" markerHeight="12" markerWidth="12" markerUnits="userSpaceOnUse" refY="5" refX="0" viewBox="0 0 10 10" class="marker flowchart" id="flowchart-pointStart"><path style="stroke-width: 1; stroke-dasharray: 1, 0;" class="arrowMarkerPath" d="M 0 5 L 10 10 L 10 0 z"/></marker><marker orient="auto" markerHeight="11" markerWidth="11" markerUnits="userSpaceOnUse" refY="5" refX="11" viewBox="0 0 10 10" class="marker flowchart" id="flowchart-circleEnd"><circle style="stroke-width: 1; stroke-dasharray: 1, 0;" class="arrowMarkerPath" r="5" cy="5" cx="5"/></marker><marker orient="auto" markerHeight="11" markerWidth="11" markerUnits="userSpaceOnUse" refY="5" refX="-1" viewBox="0 0 10 10" class="marker flowchart" id="flowchart-circleStart"><circle style="stroke-width: 1; stroke-dasharray: 1, 0;" class="arrowMarkerPath" r="5" cy="5" cx="5"/></marker><marker orient="auto" markerHeight="11" markerWidth="11" markerUnits="userSpaceOnUse" refY="5.2" refX="12" viewBox="0 0 11 11" class="marker cross flowchart" id="flowchart-crossEnd"><path style="stroke-width: 2; stroke-dasharray: 1, 0;" class="arrowMarkerPath" d="M 1,1 l 9,9 M 10,1 l -9,9"/></marker><marker orient="auto" markerHeight="11" markerWidth="11" markerUnits="userSpaceOnUse" refY="5.2" refX="-1" viewBox="0 0 11 11" class="marker cross flowchart" id="flowchart-crossStart"><path style="stroke-width: 2; stroke-dasharray: 1, 0;" class="arrowMarkerPath" d="M 1,1 l 9,9 M 10,1 l -9,9"/></marker><g class="root"><g class="clusters"/><g class="edgePaths"><path marker-end="url(#flowchart-pointEnd)" style="fill:none;" class="edge-thickness-normal edge-pattern-solid flowchart-link LS-S LE-V1" id="L-S-V1-0" d="M197.42578125,24.229046473506056L172.10807291666666,30.024205394588382C146.79036458333334,35.819364315670704,96.15494791666667,47.409682157835356,70.83723958333333,57.371507745584346C45.51953125,67.33333333333333,45.51953125,75.66666666666667,45.51953125,79.83333333333333L45.51953125,84"/><path marker-end="url(#flowchart-pointEnd)" style="fill:none;" class="edge-thickness-normal edge-pattern-solid flowchart-link LS-V1 LE-i1" id="L-V1-i1-0" d="M33.72242870145631,118L29.73223225121359,123.75C25.74203580097087,129.5,17.761642900485437,141,13.771446450242719,152.5C9.78125,164,9.78125,175.5,9.78125,181.25L9.78125,187"/><path marker-end="url(#flowchart-pointEnd)" style="fill:none;" class="edge-thickness-normal edge-pattern-solid flowchart-link LS-V1 LE-1" id="L-V1-1-0" d="M57.31663379854369,118L61.30683024878641,123.75C65.29702669902913,129.5,73.27741959951457,141,77.26761604975728,152.5C81.2578125,164,81.2578125,175.5,81.2578125,181.25L81.2578125,187"/><path marker-end="url(#flowchart-pointEnd)" style="fill:none;" class="edge-thickness-normal edge-pattern-solid flowchart-link LS-S LE-W" id="L-S-W-0" d="M260.58984375,22.088639462918284L298.7708333333333,28.240532885765237C336.9518229166667,34.39242630861219,413.3138020833333,46.69621315430609,451.4947916666667,57.01477324381972C489.67578125,67.33333333333333,489.67578125,75.66666666666667,489.67578125,79.83333333333333L489.67578125,84"/><path marker-end="url(#flowchart-pointEnd)" style="fill:none;" class="edge-thickness-normal edge-pattern-solid flowchart-link LS-W LE-le" id="L-W-le-0" d="M461.84765625,105.33195187323628L411.3470052083333,113.19329322769688C360.8463541666667,121.05463458215752,259.8450520833333,136.77731729107876,209.34440104166666,150.38865864553938C158.84375,164,158.84375,175.5,158.84375,181.25L158.84375,187"/><path marker-end="url(#flowchart-pointEnd)" style="fill:none;" class="edge-thickness-normal edge-pattern-solid flowchart-link LS-le LE-5" id="L-le-5-0" d="M145.47997572815535,221L140.95987560679612,226.75C136.4397754854369,232.5,127.39957524271846,244,122.87947512135922,255.5C118.359375,267,118.359375,278.5,118.359375,284.25L118.359375,290"/><path marker-end="url(#flowchart-pointEnd)" style="fill:none;" class="edge-thickness-normal edge-pattern-solid flowchart-link LS-le LE-Var" id="L-le-Var-0" d="M172.20752427184465,221L176.72762439320388,226.75C181.2477245145631,232.5,190.28792475728156,244,194.8080248786408,255.5C199.328125,267,199.328125,278.5,199.328125,284.25L199.328125,290"/><path marker-end="url(#flowchart-pointEnd)" style="fill:none;" class="edge-thickness-normal edge-pattern-solid flowchart-link LS-Var LE-i2" id="L-Var-i2-0" d="M199.328125,324L199.328125,328.1666666666667C199.328125,332.3333333333333,199.328125,340.6666666666667,199.328125,349C199.328125,357.3333333333333,199.328125,365.6666666666667,199.328125,369.8333333333333L199.328125,374"/><path marker-end="url(#flowchart-pointEnd)" style="fill:none;" class="edge-thickness-normal edge-pattern-solid flowchart-link LS-W LE-if" id="L-W-if-0" d="M489.67578125,118L489.67578125,123.75C489.67578125,129.5,489.67578125,141,489.67578125,152.5C489.67578125,164,489.67578125,175.5,489.67578125,181.25L489.67578125,187"/><path marker-end="url(#flowchart-pointEnd)" style="fill:none;" class="edge-thickness-normal edge-pattern-solid flowchart-link LS-if LE-eq" id="L-if-eq-0" d="M476.89453125,207.87535071983808L450.7161458333333,215.81279226653172C424.5377604166667,223.75023381322538,372.1809895833333,239.62511690661267,346.0026041666667,253.31255845330634C319.82421875,267,319.82421875,278.5,319.82421875,284.25L319.82421875,290"/><path marker-end="url(#flowchart-pointEnd)" style="fill:none;" class="edge-thickness-normal edge-pattern-solid flowchart-link LS-eq LE-V2" id="L-eq-V2-0" d="M308.12890625,319.1331532226939L303.3307291666667,324.1109610189116C298.5325520833333,329.0887688151293,288.9361979166667,339.0443844075646,284.1380208333333,348.188858870449C279.33984375,357.3333333333333,279.33984375,365.6666666666667,279.33984375,369.8333333333333L279.33984375,374"/><path marker-end="url(#flowchart-pointEnd)" style="fill:none;" class="edge-thickness-normal edge-pattern-solid flowchart-link LS-V2 LE-i3" id="L-V2-i3-0" d="M279.33984375,408L279.33984375,412.1666666666667C279.33984375,416.3333333333333,279.33984375,424.6666666666667,279.33984375,433C279.33984375,441.3333333333333,279.33984375,449.6666666666667,279.33984375,453.8333333333333L279.33984375,458"/><path marker-end="url(#flowchart-pointEnd)" style="fill:none;" class="edge-thickness-normal edge-pattern-solid flowchart-link LS-eq LE-3" id="L-eq-3-0" d="M331.51953125,319.1331532226939L336.3177083333333,324.1109610189116C341.1158854166667,329.0887688151293,350.7122395833333,339.0443844075646,355.5104166666667,348.188858870449C360.30859375,357.3333333333333,360.30859375,365.6666666666667,360.30859375,369.8333333333333L360.30859375,374"/><path marker-end="url(#flowchart-pointEnd)" style="fill:none;" class="edge-thickness-normal edge-pattern-solid flowchart-link LS-if LE-O1" id="L-if-O1-0" d="M489.67578125,221L489.67578125,226.75C489.67578125,232.5,489.67578125,244,489.67578125,255.5C489.67578125,267,489.67578125,278.5,489.67578125,284.25L489.67578125,290"/><path marker-end="url(#flowchart-pointEnd)" style="fill:none;" class="edge-thickness-normal edge-pattern-solid flowchart-link LS-O1 LE-str1" id="L-O1-str1-0" d="M489.67578125,324L489.67578125,328.1666666666667C489.67578125,332.3333333333333,489.67578125,340.6666666666667,489.67578125,349C489.67578125,357.3333333333333,489.67578125,365.6666666666667,489.67578125,369.8333333333333L489.67578125,374"/><path marker-end="url(#flowchart-pointEnd)" style="fill:none;" class="edge-thickness-normal edge-pattern-solid flowchart-link LS-if LE-O2" id="L-if-O2-0" d="M502.45703125,208.8065491471276L523.1510416666666,216.58879095593966C543.8450520833334,224.37103276475173,585.2330729166666,239.93551638237588,605.9270833333334,253.46775819118793C626.62109375,267,626.62109375,278.5,626.62109375,284.25L626.62109375,290"/><path marker-end="url(#flowchart-pointEnd)" style="fill:none;" class="edge-thickness-normal edge-pattern-solid flowchart-link LS-O2 LE-V3" id="L-O2-V3-0" d="M626.62109375,324L626.62109375,328.1666666666667C626.62109375,332.3333333333333,626.62109375,340.6666666666667,626.62109375,349C626.62109375,357.3333333333333,626.62109375,365.6666666666667,626.62109375,369.8333333333333L626.62109375,374"/><path marker-end="url(#flowchart-pointEnd)" style="fill:none;" class="edge-thickness-normal edge-pattern-solid flowchart-link LS-V3 LE-i4" id="L-V3-i4-0" d="M626.62109375,408L626.62109375,412.1666666666667C626.62109375,416.3333333333333,626.62109375,424.6666666666667,626.62109375,433C626.62109375,441.3333333333333,626.62109375,449.6666666666667,626.62109375,453.8333333333333L626.62109375,458"/><path marker-end="url(#flowchart-pointEnd)" style="fill:none;" class="edge-thickness-normal edge-pattern-solid flowchart-link LS-W LE-V4" id="L-W-V4-0" d="M517.50390625,106.31118445814876L557.8385416666666,114.00932038179063C598.1731770833334,121.70745630543252,678.8424479166666,137.10372815271626,719.1770833333334,150.55186407635813C759.51171875,164,759.51171875,175.5,759.51171875,181.25L759.51171875,187"/><path marker-end="url(#flowchart-pointEnd)" style="fill:none;" class="edge-thickness-normal edge-pattern-solid flowchart-link LS-V4 LE-i5" id="L-V4-i5-0" d="M747.7146162014564,221L743.7244197512136,226.75C739.7342233009709,232.5,731.7538304004855,244,727.7636339502427,255.5C723.7734375,267,723.7734375,278.5,723.7734375,284.25L723.7734375,290"/><path marker-end="url(#flowchart-pointEnd)" style="fill:none;" class="edge-thickness-normal edge-pattern-solid flowchart-link LS-V4 LE-plus" id="L-V4-plus-0" d="M771.3088212985436,221L775.2990177487864,226.75C779.2892141990291,232.5,787.2696070995145,244,791.2598035497573,255.5C795.25,267,795.25,278.5,795.25,284.25L795.25,290"/><path marker-end="url(#flowchart-pointEnd)" style="fill:none;" class="edge-thickness-normal edge-pattern-solid flowchart-link LS-plus LE-i6" id="L-plus-i6-0" d="M783.5546875,317.9675112293402L778.0393880208334,323.13959269111683C772.5240885416666,328.31167415289343,761.4934895833334,338.65583707644674,755.9781901041666,347.99458520489003C750.462890625,357.3333333333333,750.462890625,365.6666666666667,750.462890625,369.8333333333333L750.462890625,374"/><path marker-end="url(#flowchart-pointEnd)" style="fill:none;" class="edge-thickness-normal edge-pattern-solid flowchart-link LS-plus LE-lit" id="L-plus-lit-0" d="M806.9453125,320.7444529456771L810.9524739583334,325.45371078806426C814.9596354166666,330.1629686304514,822.9739583333334,339.5814843152257,826.9811197916666,348.4574088242795C830.98828125,357.3333333333333,830.98828125,365.6666666666667,830.98828125,369.8333333333333L830.98828125,374"/></g><g class="edgeLabels"><g class="edgeLabel"><g transform="translate(0, 0)" class="label"><rect height="0" width="0" ry="0" rx="0"/><text style=""><tspan class="row" x="0" dy="1em" xml:space="preserve"/></text></g></g><g class="edgeLabel"><g transform="translate(0, 0)" class="label"><rect height="0" width="0" ry="0" rx="0"/><text style=""><tspan class="row" x="0" dy="1em" xml:space="preserve"/></text></g></g><g class="edgeLabel"><g transform="translate(0, 0)" class="label"><rect height="0" width="0" ry="0" rx="0"/><text style=""><tspan class="row" x="0" dy="1em" xml:space="preserve"/></text></g></g><g class="edgeLabel"><g transform="translate(0, 0)" class="label"><rect height="0" width="0" ry="0" rx="0"/><text style=""><tspan class="row" x="0" dy="1em" xml:space="preserve"/></text></g></g><g transform="translate(158.84375, 152.5)" class="edgeLabel"><g transform="translate(-33.484375, -9.5)" class="label"><rect height="18.619592666625977" width="66.92304992675781" ry="0" rx="0"/><text style=""><tspan class="row" x="0" dy="1em" xml:space="preserve">condition</tspan></text></g></g><g class="edgeLabel"><g transform="translate(0, 0)" class="label"><rect height="0" width="0" ry="0" rx="0"/><text style=""><tspan class="row" x="0" dy="1em" xml:space="preserve"/></text></g></g><g class="edgeLabel"><g transform="translate(0, 0)" class="label"><rect height="0" width="0" ry="0" rx="0"/><text style=""><tspan class="row" x="0" dy="1em" xml:space="preserve"/></text></g></g><g class="edgeLabel"><g transform="translate(0, 0)" class="label"><rect height="0" width="0" ry="0" rx="0"/><text style=""><tspan class="row" x="0" dy="1em" xml:space="preserve"/></text></g></g><g class="edgeLabel"><g transform="translate(0, 0)" class="label"><rect height="0" width="0" ry="0" rx="0"/><text style=""><tspan class="row" x="0" dy="1em" xml:space="preserve"/></text></g></g><g transform="translate(319.82421875, 255.5)" class="edgeLabel"><g transform="translate(-33.484375, -9.5)" class="label"><rect height="18.619592666625977" width="66.92304992675781" ry="0" rx="0"/><text style=""><tspan class="row" x="0" dy="1em" xml:space="preserve">condition</tspan></text></g></g><g class="edgeLabel"><g transform="translate(0, 0)" class="label"><rect height="0" width="0" ry="0" rx="0"/><text style=""><tspan class="row" x="0" dy="1em" xml:space="preserve"/></text></g></g><g class="edgeLabel"><g transform="translate(0, 0)" class="label"><rect height="0" width="0" ry="0" rx="0"/><text style=""><tspan class="row" x="0" dy="1em" xml:space="preserve"/></text></g></g><g class="edgeLabel"><g transform="translate(0, 0)" class="label"><rect height="0" width="0" ry="0" rx="0"/><text style=""><tspan class="row" x="0" dy="1em" xml:space="preserve"/></text></g></g><g transform="translate(489.67578125, 255.5)" class="edgeLabel"><g transform="translate(-16.28125, -9.5)" class="label"><rect height="18.619592666625977" width="32.550994873046875" ry="0" rx="0"/><text style=""><tspan class="row" x="0" dy="1em" xml:space="preserve">then</tspan></text></g></g><g class="edgeLabel"><g transform="translate(0, 0)" class="label"><rect height="0" width="0" ry="0" rx="0"/><text style=""><tspan class="row" x="0" dy="1em" xml:space="preserve"/></text></g></g><g transform="translate(626.62109375, 255.5)" class="edgeLabel"><g transform="translate(-14.4609375, -9.5)" class="label"><rect height="18.619592666625977" width="28.66423797607422" ry="0" rx="0"/><text style=""><tspan class="row" x="0" dy="1em" xml:space="preserve">else</tspan></text></g></g><g class="edgeLabel"><g transform="translate(0, 0)" class="label"><rect height="0" width="0" ry="0" rx="0"/><text style=""><tspan class="row" x="0" dy="1em" xml:space="preserve"/></text></g></g><g class="edgeLabel"><g transform="translate(0, 0)" class="label"><rect height="0" width="0" ry="0" rx="0"/><text style=""><tspan class="row" x="0" dy="1em" xml:space="preserve"/></text></g></g><g class="edgeLabel"><g transform="translate(0, 0)" class="label"><rect height="0" width="0" ry="0" rx="0"/><text style=""><tspan class="row" x="0" dy="1em" xml:space="preserve"/></text></g></g><g class="edgeLabel"><g transform="translate(0, 0)" class="label"><rect height="0" width="0" ry="0" rx="0"/><text style=""><tspan class="row" x="0" dy="1em" xml:space="preserve"/></text></g></g><g class="edgeLabel"><g transform="translate(0, 0)" class="label"><rect height="0" width="0" ry="0" rx="0"/><text style=""><tspan class="row" x="0" dy="1em" xml:space="preserve"/></text></g></g><g class="edgeLabel"><g transform="translate(0, 0)" class="label"><rect height="0" width="0" ry="0" rx="0"/><text style=""><tspan class="row" x="0" dy="1em" xml:space="preserve"/></text></g></g><g class="edgeLabel"><g transform="translate(0, 0)" class="label"><rect height="0" width="0" ry="0" rx="0"/><text style=""><tspan class="row" x="0" dy="1em" xml:space="preserve"/></text></g></g></g><g class="nodes"><g transform="translate(81.2578125, 204)" id="flowchart-1-85" class="node default default flowchart-label"><rect height="34" width="23.390625" y="-17" x="-11.6953125" ry="0" rx="0" style="" class="basic label-container"/><g transform="translate(0, -9.5)" style="" class="label"><rect/><text style=""><tspan class="row" x="0" dy="1em" xml:space="preserve">1</tspan></text></g></g><g transform="translate(360.30859375, 391)" id="flowchart-3-102" class="node default default flowchart-label"><rect height="34" width="23.390625" y="-17" x="-11.6953125" ry="0" rx="0" style="" class="basic label-container"/><g transform="translate(0, -9.5)" style="" class="label"><rect/><text style=""><tspan class="row" x="0" dy="1em" xml:space="preserve">3</tspan></text></g></g><g transform="translate(118.359375, 307)" id="flowchart-5-91" class="node default default flowchart-label"><rect height="34" width="23.390625" y="-17" x="-11.6953125" ry="0" rx="0" style="" class="basic label-container"/><g transform="translate(0, -9.5)" style="" class="label"><rect/><text style=""><tspan class="row" x="0" dy="1em" xml:space="preserve">5</tspan></text></g></g><g transform="translate(229.0078125, 17)" id="flowchart-S-80" class="node default default flowchart-label"><rect height="34" width="63.1640625" y="-17" x="-31.58203125" ry="0" rx="0" style="" class="basic label-container"/><g transform="translate(0, -9.5)" style="" class="label"><rect/><text style=""><tspan class="row" x="0" dy="1em" xml:space="preserve">Source</tspan></text></g></g><g transform="translate(45.51953125, 101)" id="flowchart-V1-81" class="node default default flowchart-label"><rect height="34" width="38.546875" y="-17" x="-19.2734375" ry="0" rx="0" style="" class="basic label-container"/><g transform="translate(0, -9.5)" style="" class="label"><rect/><text style=""><tspan class="row" x="0" dy="1em" xml:space="preserve">Var</tspan></text></g></g><g transform="translate(9.78125, 204)" id="flowchart-i1-83" class="node default default flowchart-label"><rect height="34" width="19.5625" y="-17" x="-9.78125" ry="0" rx="0" style="" class="basic label-container"/><g transform="translate(0, -9.5)" style="" class="label"><rect/><text style=""><tspan class="row" x="0" dy="1em" xml:space="preserve">i</tspan></text></g></g><g transform="translate(489.67578125, 101)" id="flowchart-W-87" class="node default default flowchart-label"><rect height="34" width="55.65625" y="-17" x="-27.828125" ry="0" rx="0" style="" class="basic label-container"/><g transform="translate(0, -9.5)" style="" class="label"><rect/><text style=""><tspan class="row" x="0" dy="1em" xml:space="preserve">While</tspan></text></g></g><g transform="translate(158.84375, 204)" id="flowchart-le-89" class="node default default flowchart-label"><rect height="34" width="31.78125" y="-17" x="-15.890625" ry="0" rx="0" style="" class="basic label-container"/><g transform="translate(0, -9.5)" style="" class="label"><rect/><text style=""><tspan class="row" x="0" dy="1em" xml:space="preserve">==</tspan></text></g></g><g transform="translate(199.328125, 307)" id="flowchart-Var-93" class="node default default flowchart-label"><rect height="34" width="38.546875" y="-17" x="-19.2734375" ry="0" rx="0" style="" class="basic label-container"/><g transform="translate(0, -9.5)" style="" class="label"><rect/><text style=""><tspan class="row" x="0" dy="1em" xml:space="preserve">Var</tspan></text></g></g><g transform="translate(199.328125, 391)" id="flowchart-i2-94" class="node default default flowchart-label"><rect height="34" width="19.5625" y="-17" x="-9.78125" ry="0" rx="0" style="" class="basic label-container"/><g transform="translate(0, -9.5)" style="" class="label"><rect/><text style=""><tspan class="row" x="0" dy="1em" xml:space="preserve">i</tspan></text></g></g><g transform="translate(489.67578125, 204)" id="flowchart-if-96" class="node default default flowchart-label"><rect height="34" width="25.5625" y="-17" x="-12.78125" ry="0" rx="0" style="" class="basic label-container"/><g transform="translate(0, -9.5)" style="" class="label"><rect/><text style=""><tspan class="row" x="0" dy="1em" xml:space="preserve">if</tspan></text></g></g><g transform="translate(319.82421875, 307)" id="flowchart-eq-97" class="node default default flowchart-label"><rect height="34" width="23.390625" y="-17" x="-11.6953125" ry="0" rx="0" style="" class="basic label-container"/><g transform="translate(0, -9.5)" style="" class="label"><rect/><text style=""><tspan class="row" x="0" dy="1em" xml:space="preserve">=</tspan></text></g></g><g transform="translate(279.33984375, 391)" id="flowchart-V2-99" class="node default default flowchart-label"><rect height="34" width="38.546875" y="-17" x="-19.2734375" ry="0" rx="0" style="" class="basic label-container"/><g transform="translate(0, -9.5)" style="" class="label"><rect/><text style=""><tspan class="row" x="0" dy="1em" xml:space="preserve">Var</tspan></text></g></g><g transform="translate(279.33984375, 475)" id="flowchart-i3-100" class="node default default flowchart-label"><rect height="34" width="19.5625" y="-17" x="-9.78125" ry="0" rx="0" style="" class="basic label-container"/><g transform="translate(0, -9.5)" style="" class="label"><rect/><text style=""><tspan class="row" x="0" dy="1em" xml:space="preserve">i</tspan></text></g></g><g transform="translate(489.67578125, 307)" id="flowchart-O1-104" class="node default default flowchart-label"><rect height="34" width="74.7421875" y="-17" x="-37.37109375" ry="0" rx="0" style="" class="basic label-container"/><g transform="translate(0, -9.5)" style="" class="label"><rect/><text style=""><tspan class="row" x="0" dy="1em" xml:space="preserve">OUTPUT</tspan></text></g></g><g transform="translate(489.67578125, 391)" id="flowchart-str1-105" class="node default default flowchart-label"><rect height="34" width="135.34375" y="-17" x="-67.671875" ry="0" rx="0" style="" class="basic label-container"/><g transform="translate(0, -9.5)" style="" class="label"><rect/><text style=""><tspan class="row" x="0" dy="1em" xml:space="preserve">'3 is a lucky num'</tspan></text></g></g><g transform="translate(626.62109375, 307)" id="flowchart-O2-107" class="node default default flowchart-label"><rect height="34" width="74.7421875" y="-17" x="-37.37109375" ry="0" rx="0" style="" class="basic label-container"/><g transform="translate(0, -9.5)" style="" class="label"><rect/><text style=""><tspan class="row" x="0" dy="1em" xml:space="preserve">OUTPUT</tspan></text></g></g><g transform="translate(626.62109375, 391)" id="flowchart-V3-108" class="node default default flowchart-label"><rect height="34" width="38.546875" y="-17" x="-19.2734375" ry="0" rx="0" style="" class="basic label-container"/><g transform="translate(0, -9.5)" style="" class="label"><rect/><text style=""><tspan class="row" x="0" dy="1em" xml:space="preserve">Var</tspan></text></g></g><g transform="translate(626.62109375, 475)" id="flowchart-i4-109" class="node default default flowchart-label"><rect height="34" width="19.5625" y="-17" x="-9.78125" ry="0" rx="0" style="" class="basic label-container"/><g transform="translate(0, -9.5)" style="" class="label"><rect/><text style=""><tspan class="row" x="0" dy="1em" xml:space="preserve">i</tspan></text></g></g><g transform="translate(759.51171875, 204)" id="flowchart-V4-111" class="node default default flowchart-label"><rect height="34" width="38.546875" y="-17" x="-19.2734375" ry="0" rx="0" style="" class="basic label-container"/><g transform="translate(0, -9.5)" style="" class="label"><rect/><text style=""><tspan class="row" x="0" dy="1em" xml:space="preserve">Var</tspan></text></g></g><g transform="translate(723.7734375, 307)" id="flowchart-i5-113" class="node default default flowchart-label"><rect height="34" width="19.5625" y="-17" x="-9.78125" ry="0" rx="0" style="" class="basic label-container"/><g transform="translate(0, -9.5)" style="" class="label"><rect/><text style=""><tspan class="row" x="0" dy="1em" xml:space="preserve">i</tspan></text></g></g><g transform="translate(795.25, 307)" id="flowchart-plus-115" class="node default default flowchart-label"><rect height="34" width="23.390625" y="-17" x="-11.6953125" ry="0" rx="0" style="" class="basic label-container"/><g transform="translate(0, -9.5)" style="" class="label"><rect/><text style=""><tspan class="row" x="0" dy="1em" xml:space="preserve">+</tspan></text></g></g><g transform="translate(750.462890625, 391)" id="flowchart-i6-117" class="node default default flowchart-label"><rect height="34" width="19.5625" y="-17" x="-9.78125" ry="0" rx="0" style="" class="basic label-container"/><g transform="translate(0, -9.5)" style="" class="label"><rect/><text style=""><tspan class="row" x="0" dy="1em" xml:space="preserve">i</tspan></text></g></g><g transform="translate(830.98828125, 391)" id="flowchart-lit-119" class="node default default flowchart-label"><rect height="34" width="23.390625" y="-17" x="-11.6953125" ry="0" rx="0" style="" class="basic label-container"/><g transform="translate(0, -9.5)" style="" class="label"><rect/><text style=""><tspan class="row" x="0" dy="1em" xml:space="preserve">1</tspan></text></g></g></g></g></g></svg>