<svg aria-roledescription="flowchart-v2" role="graphics-document document" viewBox="-8 -8 858.68359375 527" style="max-width: 858.684px; background-color: white;" xmlns:xlink="http://www.w3.org/1999/xlink" xmlns="http://www.w3.org/2000/svg" width="100%" id="mermaid-1680949817030"><style>#mermaid-1680949817030{font-family:"trebuchet ms",verdana,arial,sans-serif;font-size:16px;fill:#333;}#mermaid-1680949817030 .error-icon{fill:hsl(220.5882352941, 100%, 98.3333333333%);}#mermaid-1680949817030 .error-text{fill:rgb(8.5000000002, 5.7500000001, 0);stroke:rgb(8.5000000002, 5.7500000001, 0);}#mermaid-1680949817030 .edge-thickness-normal{stroke-width:2px;}#mermaid-1680949817030 .edge-thickness-thick{stroke-width:3.5px;}#mermaid-1680949817030 .edge-pattern-solid{stroke-dasharray:0;}#mermaid-1680949817030 .edge-pattern-dashed{stroke-dasharray:3;}#mermaid-1680949817030 .edge-pattern-dotted{stroke-dasharray:2;}#mermaid-1680949817030 .marker{fill:#0b0b0b;stroke:#0b0b0b;}#mermaid-1680949817030 .marker.cross{stroke:#0b0b0b;}#mermaid-1680949817030 svg{font-family:"trebuchet ms",verdana,arial,sans-serif;font-size:16px;}#mermaid-1680949817030 .label{font-family:"trebuchet ms",verdana,arial,sans-serif;color:#333;}#mermaid-1680949817030 .cluster-label text{fill:rgb(8.5000000002, 5.7500000001, 0);}#mermaid-1680949817030 .cluster-label span{color:rgb(8.5000000002, 5.7500000001, 0);}#mermaid-1680949817030 .label text,#mermaid-1680949817030 span{fill:#333;color:#333;}#mermaid-1680949817030 .node rect,#mermaid-1680949817030 .node circle,#mermaid-1680949817030 .node ellipse,#mermaid-1680949817030 .node polygon,#mermaid-1680949817030 .node path{fill:#FFF4DD;stroke:hsl(40.5882352941, 60%, 83.3333333333%);stroke-width:1px;}#mermaid-1680949817030 .node .label{text-align:center;}#mermaid-1680949817030 .node.clickable{cursor:pointer;}#mermaid-1680949817030 .arrowheadPath{fill:undefined;}#mermaid-1680949817030 .edgePath .path{stroke:#0b0b0b;stroke-width:2.0px;}#mermaid-1680949817030 .flowchart-link{stroke:#0b0b0b;fill:none;}#mermaid-1680949817030 .edgeLabel{background-color:#FFFAF0;text-align:center;}#mermaid-1680949817030 .edgeLabel rect{opacity:0.5;background-color:#FFFAF0;fill:#FFFAF0;}#mermaid-1680949817030 .cluster rect{fill:hsl(220.5882352941, 100%, 98.3333333333%);stroke:hsl(220.5882352941, 60%, 88.3333333333%);stroke-width:1px;}#mermaid-1680949817030 .cluster text{fill:rgb(8.5000000002, 5.7500000001, 0);}#mermaid-1680949817030 .cluster span{color:rgb(8.5000000002, 5.7500000001, 0);}#mermaid-1680949817030 div.mermaidTooltip{position:absolute;text-align:center;max-width:200px;padding:2px;font-family:"trebuchet ms",verdana,arial,sans-serif;font-size:12px;background:hsl(220.5882352941, 100%, 98.3333333333%);border:1px solid undefined;border-radius:2px;pointer-events:none;z-index:100;}#mermaid-1680949817030 .flowchartTitleText{text-anchor:middle;font-size:18px;fill:#333;}#mermaid-1680949817030 :root{--mermaid-font-family:"trebuchet ms",verdana,arial,sans-serif;}</style><g><marker orient="auto" markerHeight="12" markerWidth="12" markerUnits="userSpaceOnUse" refY="5" refX="10" viewBox="0 0 12 20" class="marker flowchart" id="flowchart-pointEnd"><path style="stroke-width: 1; stroke-dasharray: 1, 0;" class="arrowMarkerPath" d="M 0 0 L 10 5 L 0 10 z"/></marker><marker orient="auto" markerHeight="12" markerWidth="12" markerUnits="userSpaceOnUse" refY="5" refX="0" viewBox="0 0 10 10" class="marker flowchart" id="flowchart-pointStart"><path style="stroke-width: 1; stroke-dasharray: 1, 0;" class="arrowMarkerPath" d="M 0 5 L 10 10 L 10 0 z"/></marker><marker orient="auto" markerHeight="11" markerWidth="11" markerUnits="userSpaceOnUse" refY="5" refX="11" viewBox="0 0 10 10" class="marker flowchart" id="flowchart-circleEnd"><circle style="stroke-width: 1; stroke-dasharray: 1, 0;" class="arrowMarkerPath" r="5" cy="5" cx="5"/></marker><marker orient="auto" markerHeight="11" markerWidth="11" markerUnits="userSpaceOnUse" refY="5" refX="-1" viewBox="0 0 10 10" class="marker flowchart" id="flowchart-circleStart"><circle style="stroke-width: 1; stroke-dasharray: 1, 0;" class="arrowMarkerPath" r="5" cy="5" cx="5"/></marker><marker orient="auto" markerHeight="11" markerWidth="11" markerUnits="userSpaceOnUse" refY="5.2" refX="12" viewBox="0 0 11 11" class="marker cross flowchart" id="flowchart-crossEnd"><path style="stroke-width: 2; stroke-dasharray: 1, 0;" class="arrowMarkerPath" d="M 1,1 l 9,9 M 10,1 l -9,9"/></marker><marker orient="auto" markerHeight="11" markerWidth="11" markerUnits="userSpaceOnUse" refY="5.2" refX="-1" viewBox="0 0 11 11" class="marker cross flowchart" id="flowchart-crossStart"><path style="stroke-width: 2; stroke-dasharray: 1, 0;" class="arrowMarkerPath" d="M 1,1 l 9,9 M 10,1 l -9,9"/></marker><g class="root"><g class="clusters"/><g class="edgePaths"><path marker-end="url(#flowchart-pointEnd)" style="fill:none;" class="edge-thickness-normal edge-pattern-solid flowchart-link LS-S LE-V1" id="L-S-V1-0" d="M197.42578125,25.864187937751474L172.10807291666666,32.97015661479289C146.79036458333334,40.076125291834316,96.15494791666667,54.28806264591716,70.83723958333333,67.14403132295858C45.51953125,80,45.51953125,91.5,45.51953125,97.25L45.51953125,103"/><path marker-end="url(#flowchart-pointEnd)" style="fill:none;" class="edge-thickness-normal edge-pattern-solid flowchart-link LS-V1 LE-i1" id="L-V1-i1-0" d="M33.72242870145631,137L29.73223225121359,142.75C25.74203580097087,148.5,17.761642900485437,160,13.771446450242719,171.5C9.78125,183,9.78125,194.5,9.78125,200.25L9.78125,206"/><path marker-end="url(#flowchart-pointEnd)" style="fill:none;" class="edge-thickness-normal edge-pattern-solid flowchart-link LS-V1 LE-1" id="L-V1-1-0" d="M57.31663379854369,137L61.30683024878641,142.75C65.29702669902913,148.5,73.27741959951457,160,77.26761604975728,171.5C81.2578125,183,81.2578125,194.5,81.2578125,200.25L81.2578125,206"/><path marker-end="url(#flowchart-pointEnd)" style="fill:none;" class="edge-thickness-normal edge-pattern-solid flowchart-link LS-S LE-W" id="L-S-W-0" d="M260.58984375,23.23964124619742L298.7708333333333,30.78303437183118C336.9518229166667,38.32642749746495,413.3138020833333,53.41321374873247,451.4947916666667,66.70660687436624C489.67578125,80,489.67578125,91.5,489.67578125,97.25L489.67578125,103"/><path marker-end="url(#flowchart-pointEnd)" style="fill:none;" class="edge-thickness-normal edge-pattern-solid flowchart-link LS-W LE-le" id="L-W-le-0" d="M459.34765625,124.72112217066345L409.263671875,132.5176018088862C359.1796875,140.31408144710898,259.01171875,155.90704072355447,208.927734375,169.45352036177724C158.84375,183,158.84375,194.5,158.84375,200.25L158.84375,206"/><path marker-end="url(#flowchart-pointEnd)" style="fill:none;" class="edge-thickness-normal edge-pattern-solid flowchart-link LS-le LE-5" id="L-le-5-0" d="M145.47997572815535,240L140.95987560679612,245.75C136.4397754854369,251.5,127.39957524271846,263,122.87947512135922,274.5C118.359375,286,118.359375,297.5,118.359375,303.25L118.359375,309"/><path marker-end="url(#flowchart-pointEnd)" style="fill:none;" class="edge-thickness-normal edge-pattern-solid flowchart-link LS-le LE-Var" id="L-le-Var-0" d="M172.20752427184465,240L176.72762439320388,245.75C181.2477245145631,251.5,190.28792475728156,263,194.8080248786408,274.5C199.328125,286,199.328125,297.5,199.328125,303.25L199.328125,309"/><path marker-end="url(#flowchart-pointEnd)" style="fill:none;" class="edge-thickness-normal edge-pattern-solid flowchart-link LS-Var LE-i2" id="L-Var-i2-0" d="M199.328125,343L199.328125,347.1666666666667C199.328125,351.3333333333333,199.328125,359.6666666666667,199.328125,368C199.328125,376.3333333333333,199.328125,384.6666666666667,199.328125,388.8333333333333L199.328125,393"/><path marker-end="url(#flowchart-pointEnd)" style="fill:none;" class="edge-thickness-normal edge-pattern-solid flowchart-link LS-W LE-IF" id="L-W-IF-0" d="M489.67578125,137L489.67578125,142.75C489.67578125,148.5,489.67578125,160,489.67578125,171.5C489.67578125,183,489.67578125,194.5,489.67578125,200.25L489.67578125,206"/><path marker-end="url(#flowchart-pointEnd)" style="fill:none;" class="edge-thickness-normal edge-pattern-solid flowchart-link LS-IF LE-eq" id="L-IF-eq-0" d="M475.44921875,227.31357803228923L449.51171875,235.17798169357434C423.57421875,243.04238535485948,371.69921875,258.7711926774297,345.76171875,272.38559633871483C319.82421875,286,319.82421875,297.5,319.82421875,303.25L319.82421875,309"/><path marker-end="url(#flowchart-pointEnd)" style="fill:none;" class="edge-thickness-normal edge-pattern-solid flowchart-link LS-eq LE-V2" id="L-eq-V2-0" d="M308.12890625,338.1331532226939L303.3307291666667,343.1109610189116C298.5325520833333,348.08876881512924,288.9361979166667,358.0443844075646,284.1380208333333,367.188858870449C279.33984375,376.3333333333333,279.33984375,384.6666666666667,279.33984375,388.8333333333333L279.33984375,393"/><path marker-end="url(#flowchart-pointEnd)" style="fill:none;" class="edge-thickness-normal edge-pattern-solid flowchart-link LS-V2 LE-i3" id="L-V2-i3-0" d="M279.33984375,427L279.33984375,431.1666666666667C279.33984375,435.3333333333333,279.33984375,443.6666666666667,279.33984375,452C279.33984375,460.3333333333333,279.33984375,468.6666666666667,279.33984375,472.8333333333333L279.33984375,477"/><path marker-end="url(#flowchart-pointEnd)" style="fill:none;" class="edge-thickness-normal edge-pattern-solid flowchart-link LS-eq LE-3" id="L-eq-3-0" d="M331.51953125,338.1331532226939L336.3177083333333,343.1109610189116C341.1158854166667,348.08876881512924,350.7122395833333,358.0443844075646,355.5104166666667,367.188858870449C360.30859375,376.3333333333333,360.30859375,384.6666666666667,360.30859375,388.8333333333333L360.30859375,393"/><path marker-end="url(#flowchart-pointEnd)" style="fill:none;" class="edge-thickness-normal edge-pattern-solid flowchart-link LS-IF LE-O1" id="L-IF-O1-0" d="M489.67578125,240L489.67578125,245.75C489.67578125,251.5,489.67578125,263,489.67578125,274.5C489.67578125,286,489.67578125,297.5,489.67578125,303.25L489.67578125,309"/><path marker-end="url(#flowchart-pointEnd)" style="fill:none;" class="edge-thickness-normal edge-pattern-solid flowchart-link LS-O1 LE-str1" id="L-O1-str1-0" d="M489.67578125,343L489.67578125,347.1666666666667C489.67578125,351.3333333333333,489.67578125,359.6666666666667,489.67578125,368C489.67578125,376.3333333333333,489.67578125,384.6666666666667,489.67578125,388.8333333333333L489.67578125,393"/><path marker-end="url(#flowchart-pointEnd)" style="fill:none;" class="edge-thickness-normal edge-pattern-solid flowchart-link LS-IF LE-O2" id="L-IF-O2-0" d="M503.90234375,228.3500770152319L524.35546875,236.04173084602658C544.80859375,243.7333846768213,585.71484375,259.11669233841064,606.16796875,272.5583461692053C626.62109375,286,626.62109375,297.5,626.62109375,303.25L626.62109375,309"/><path marker-end="url(#flowchart-pointEnd)" style="fill:none;" class="edge-thickness-normal edge-pattern-solid flowchart-link LS-O2 LE-V3" id="L-O2-V3-0" d="M626.62109375,343L626.62109375,347.1666666666667C626.62109375,351.3333333333333,626.62109375,359.6666666666667,626.62109375,368C626.62109375,376.3333333333333,626.62109375,384.6666666666667,626.62109375,388.8333333333333L626.62109375,393"/><path marker-end="url(#flowchart-pointEnd)" style="fill:none;" class="edge-thickness-normal edge-pattern-solid flowchart-link LS-V3 LE-i4" id="L-V3-i4-0" d="M626.62109375,427L626.62109375,431.1666666666667C626.62109375,435.3333333333333,626.62109375,443.6666666666667,626.62109375,452C626.62109375,460.3333333333333,626.62109375,468.6666666666667,626.62109375,472.8333333333333L626.62109375,477"/><path marker-end="url(#flowchart-pointEnd)" style="fill:none;" class="edge-thickness-normal edge-pattern-solid flowchart-link LS-W LE-V4" id="L-W-V4-0" d="M520.00390625,125.78832623990272L559.921875,133.40693853325226C599.83984375,141.0255508266018,679.67578125,156.26277541330091,719.59375,169.63138770665046C759.51171875,183,759.51171875,194.5,759.51171875,200.25L759.51171875,206"/><path marker-end="url(#flowchart-pointEnd)" style="fill:none;" class="edge-thickness-normal edge-pattern-solid flowchart-link LS-V4 LE-i5" id="L-V4-i5-0" d="M747.7146162014564,240L743.7244197512136,245.75C739.7342233009709,251.5,731.7538304004855,263,727.7636339502427,274.5C723.7734375,286,723.7734375,297.5,723.7734375,303.25L723.7734375,309"/><path marker-end="url(#flowchart-pointEnd)" style="fill:none;" class="edge-thickness-normal edge-pattern-solid flowchart-link LS-V4 LE-plus" id="L-V4-plus-0" d="M771.3088212985436,240L775.2990177487864,245.75C779.2892141990291,251.5,787.2696070995145,263,791.2598035497573,274.5C795.25,286,795.25,297.5,795.25,303.25L795.25,309"/><path marker-end="url(#flowchart-pointEnd)" style="fill:none;" class="edge-thickness-normal edge-pattern-solid flowchart-link LS-plus LE-i6" id="L-plus-i6-0" d="M783.5546875,336.9675112293402L778.0393880208334,342.13959269111683C772.5240885416666,347.31167415289343,761.4934895833334,357.65583707644674,755.9781901041666,366.99458520489003C750.462890625,376.3333333333333,750.462890625,384.6666666666667,750.462890625,388.8333333333333L750.462890625,393"/><path marker-end="url(#flowchart-pointEnd)" style="fill:none;" class="edge-thickness-normal edge-pattern-solid flowchart-link LS-plus LE-lit" id="L-plus-lit-0" d="M806.9453125,339.7444529456771L810.9524739583334,344.4537107880642C814.9596354166666,349.16296863045136,822.9739583333334,358.5814843152257,826.9811197916666,367.4574088242795C830.98828125,376.3333333333333,830.98828125,384.6666666666667,830.98828125,388.8333333333333L830.98828125,393"/></g><g class="edgeLabels"><g transform="translate(45.51953125, 68.5)" class="edgeLabel"><g transform="translate(-43.3046875, -9.5)" class="label"><rect height="18.619731903076172" width="86.52699279785156" ry="0" rx="0"/><text style=""><tspan class="row" x="0" dy="1em" xml:space="preserve">statement 1</tspan></text></g></g><g class="edgeLabel"><g transform="translate(0, 0)" class="label"><rect height="0" width="0" ry="0" rx="0"/><text style=""><tspan class="row" x="0" dy="1em" xml:space="preserve"/></text></g></g><g class="edgeLabel"><g transform="translate(0, 0)" class="label"><rect height="0" width="0" ry="0" rx="0"/><text style=""><tspan class="row" x="0" dy="1em" xml:space="preserve"/></text></g></g><g transform="translate(489.67578125, 68.5)" class="edgeLabel"><g transform="translate(-43.3046875, -9.5)" class="label"><rect height="18.619731903076172" width="86.52699279785156" ry="0" rx="0"/><text style=""><tspan class="row" x="0" dy="1em" xml:space="preserve">statement 2</tspan></text></g></g><g transform="translate(158.84375, 171.5)" class="edgeLabel"><g transform="translate(-33.484375, -9.5)" class="label"><rect height="18.619731903076172" width="66.92355346679688" ry="0" rx="0"/><text style=""><tspan class="row" x="0" dy="1em" xml:space="preserve">condition</tspan></text></g></g><g class="edgeLabel"><g transform="translate(0, 0)" class="label"><rect height="0" width="0" ry="0" rx="0"/><text style=""><tspan class="row" x="0" dy="1em" xml:space="preserve"/></text></g></g><g class="edgeLabel"><g transform="translate(0, 0)" class="label"><rect height="0" width="0" ry="0" rx="0"/><text style=""><tspan class="row" x="0" dy="1em" xml:space="preserve"/></text></g></g><g class="edgeLabel"><g transform="translate(0, 0)" class="label"><rect height="0" width="0" ry="0" rx="0"/><text style=""><tspan class="row" x="0" dy="1em" xml:space="preserve"/></text></g></g><g transform="translate(489.67578125, 171.5)" class="edgeLabel"><g transform="translate(-43.3046875, -9.5)" class="label"><rect height="18.619731903076172" width="86.52699279785156" ry="0" rx="0"/><text style=""><tspan class="row" x="0" dy="1em" xml:space="preserve">statement 1</tspan></text></g></g><g transform="translate(319.82421875, 274.5)" class="edgeLabel"><g transform="translate(-33.484375, -9.5)" class="label"><rect height="18.619731903076172" width="66.92355346679688" ry="0" rx="0"/><text style=""><tspan class="row" x="0" dy="1em" xml:space="preserve">condition</tspan></text></g></g><g class="edgeLabel"><g transform="translate(0, 0)" class="label"><rect height="0" width="0" ry="0" rx="0"/><text style=""><tspan class="row" x="0" dy="1em" xml:space="preserve"/></text></g></g><g class="edgeLabel"><g transform="translate(0, 0)" class="label"><rect height="0" width="0" ry="0" rx="0"/><text style=""><tspan class="row" x="0" dy="1em" xml:space="preserve"/></text></g></g><g class="edgeLabel"><g transform="translate(0, 0)" class="label"><rect height="0" width="0" ry="0" rx="0"/><text style=""><tspan class="row" x="0" dy="1em" xml:space="preserve"/></text></g></g><g transform="translate(489.67578125, 274.5)" class="edgeLabel"><g transform="translate(-16.28125, -9.5)" class="label"><rect height="18.619731903076172" width="32.551239013671875" ry="0" rx="0"/><text style=""><tspan class="row" x="0" dy="1em" xml:space="preserve">then</tspan></text></g></g><g class="edgeLabel"><g transform="translate(0, 0)" class="label"><rect height="0" width="0" ry="0" rx="0"/><text style=""><tspan class="row" x="0" dy="1em" xml:space="preserve"/></text></g></g><g transform="translate(626.62109375, 274.5)" class="edgeLabel"><g transform="translate(-14.4609375, -9.5)" class="label"><rect height="18.619731903076172" width="28.664453506469727" ry="0" rx="0"/><text style=""><tspan class="row" x="0" dy="1em" xml:space="preserve">else</tspan></text></g></g><g class="edgeLabel"><g transform="translate(0, 0)" class="label"><rect height="0" width="0" ry="0" rx="0"/><text style=""><tspan class="row" x="0" dy="1em" xml:space="preserve"/></text></g></g><g class="edgeLabel"><g transform="translate(0, 0)" class="label"><rect height="0" width="0" ry="0" rx="0"/><text style=""><tspan class="row" x="0" dy="1em" xml:space="preserve"/></text></g></g><g transform="translate(759.51171875, 171.5)" class="edgeLabel"><g transform="translate(-43.3046875, -9.5)" class="label"><rect height="18.619731903076172" width="86.52699279785156" ry="0" rx="0"/><text style=""><tspan class="row" x="0" dy="1em" xml:space="preserve">statement 2</tspan></text></g></g><g class="edgeLabel"><g transform="translate(0, 0)" class="label"><rect height="0" width="0" ry="0" rx="0"/><text style=""><tspan class="row" x="0" dy="1em" xml:space="preserve"/></text></g></g><g class="edgeLabel"><g transform="translate(0, 0)" class="label"><rect height="0" width="0" ry="0" rx="0"/><text style=""><tspan class="row" x="0" dy="1em" xml:space="preserve"/></text></g></g><g class="edgeLabel"><g transform="translate(0, 0)" class="label"><rect height="0" width="0" ry="0" rx="0"/><text style=""><tspan class="row" x="0" dy="1em" xml:space="preserve"/></text></g></g><g class="edgeLabel"><g transform="translate(0, 0)" class="label"><rect height="0" width="0" ry="0" rx="0"/><text style=""><tspan class="row" x="0" dy="1em" xml:space="preserve"/></text></g></g></g><g class="nodes"><g transform="translate(81.2578125, 223)" id="flowchart-1-85" class="node default default"><rect height="34" width="23.390625" y="-17" x="-11.6953125" ry="0" rx="0" style="" class="basic label-container"/><g transform="translate(-4.1953125, -9.5)" style="" class="label"><text style=""><tspan class="row" x="0" dy="1em" xml:space="preserve">1</tspan></text></g></g><g transform="translate(360.30859375, 410)" id="flowchart-3-102" class="node default default"><rect height="34" width="23.390625" y="-17" x="-11.6953125" ry="0" rx="0" style="" class="basic label-container"/><g transform="translate(-4.1953125, -9.5)" style="" class="label"><text style=""><tspan class="row" x="0" dy="1em" xml:space="preserve">3</tspan></text></g></g><g transform="translate(118.359375, 326)" id="flowchart-5-91" class="node default default"><rect height="34" width="23.390625" y="-17" x="-11.6953125" ry="0" rx="0" style="" class="basic label-container"/><g transform="translate(-4.1953125, -9.5)" style="" class="label"><text style=""><tspan class="row" x="0" dy="1em" xml:space="preserve">5</tspan></text></g></g><g transform="translate(229.0078125, 17)" id="flowchart-S-80" class="node default default"><rect height="34" width="63.1640625" y="-17" x="-31.58203125" ry="0" rx="0" style="" class="basic label-container"/><g transform="translate(-24.08203125, -9.5)" style="" class="label"><text style=""><tspan class="row" x="0" dy="1em" xml:space="preserve">Source</tspan></text></g></g><g transform="translate(45.51953125, 120)" id="flowchart-V1-81" class="node default default"><rect height="34" width="38.546875" y="-17" x="-19.2734375" ry="0" rx="0" style="" class="basic label-container"/><g transform="translate(-11.7734375, -9.5)" style="" class="label"><text style=""><tspan class="row" x="0" dy="1em" xml:space="preserve">Var</tspan></text></g></g><g transform="translate(9.78125, 223)" id="flowchart-i1-83" class="node default default"><rect height="34" width="19.5625" y="-17" x="-9.78125" ry="0" rx="0" style="" class="basic label-container"/><g transform="translate(-2.28125, -9.5)" style="" class="label"><text style=""><tspan class="row" x="0" dy="1em" xml:space="preserve">i</tspan></text></g></g><g transform="translate(489.67578125, 120)" id="flowchart-W-87" class="node default default"><rect height="34" width="60.65625" y="-17" x="-30.328125" ry="0" rx="0" style="" class="basic label-container"/><g transform="translate(-22.828125, -9.5)" style="" class="label"><text style=""><tspan class="row" x="0" dy="1em" xml:space="preserve">WHILE</tspan></text></g></g><g transform="translate(158.84375, 223)" id="flowchart-le-89" class="node default default"><rect height="34" width="31.78125" y="-17" x="-15.890625" ry="0" rx="0" style="" class="basic label-container"/><g transform="translate(-8.390625, -9.5)" style="" class="label"><text style=""><tspan class="row" x="0" dy="1em" xml:space="preserve">&lt;=</tspan></text></g></g><g transform="translate(199.328125, 326)" id="flowchart-Var-93" class="node default default"><rect height="34" width="38.546875" y="-17" x="-19.2734375" ry="0" rx="0" style="" class="basic label-container"/><g transform="translate(-11.7734375, -9.5)" style="" class="label"><text style=""><tspan class="row" x="0" dy="1em" xml:space="preserve">Var</tspan></text></g></g><g transform="translate(199.328125, 410)" id="flowchart-i2-94" class="node default default"><rect height="34" width="19.5625" y="-17" x="-9.78125" ry="0" rx="0" style="" class="basic label-container"/><g transform="translate(-2.28125, -9.5)" style="" class="label"><text style=""><tspan class="row" x="0" dy="1em" xml:space="preserve">i</tspan></text></g></g><g transform="translate(489.67578125, 223)" id="flowchart-IF-96" class="node default default"><rect height="34" width="28.453125" y="-17" x="-14.2265625" ry="0" rx="0" style="" class="basic label-container"/><g transform="translate(-6.7265625, -9.5)" style="" class="label"><text style=""><tspan class="row" x="0" dy="1em" xml:space="preserve">IF</tspan></text></g></g><g transform="translate(319.82421875, 326)" id="flowchart-eq-97" class="node default default"><rect height="34" width="23.390625" y="-17" x="-11.6953125" ry="0" rx="0" style="" class="basic label-container"/><g transform="translate(-4.1953125, -9.5)" style="" class="label"><text style=""><tspan class="row" x="0" dy="1em" xml:space="preserve">=</tspan></text></g></g><g transform="translate(279.33984375, 410)" id="flowchart-V2-99" class="node default default"><rect height="34" width="38.546875" y="-17" x="-19.2734375" ry="0" rx="0" style="" class="basic label-container"/><g transform="translate(-11.7734375, -9.5)" style="" class="label"><text style=""><tspan class="row" x="0" dy="1em" xml:space="preserve">Var</tspan></text></g></g><g transform="translate(279.33984375, 494)" id="flowchart-i3-100" class="node default default"><rect height="34" width="19.5625" y="-17" x="-9.78125" ry="0" rx="0" style="" class="basic label-container"/><g transform="translate(-2.28125, -9.5)" style="" class="label"><text style=""><tspan class="row" x="0" dy="1em" xml:space="preserve">i</tspan></text></g></g><g transform="translate(489.67578125, 326)" id="flowchart-O1-104" class="node default default"><rect height="34" width="74.7421875" y="-17" x="-37.37109375" ry="0" rx="0" style="" class="basic label-container"/><g transform="translate(-29.87109375, -9.5)" style="" class="label"><text style=""><tspan class="row" x="0" dy="1em" xml:space="preserve">OUTPUT</tspan></text></g></g><g transform="translate(489.67578125, 410)" id="flowchart-str1-105" class="node default default"><rect height="34" width="135.34375" y="-17" x="-67.671875" ry="0" rx="0" style="" class="basic label-container"/><g transform="translate(-60.171875, -9.5)" style="" class="label"><text style=""><tspan class="row" x="0" dy="1em" xml:space="preserve">'3 is a lucky num'</tspan></text></g></g><g transform="translate(626.62109375, 326)" id="flowchart-O2-107" class="node default default"><rect height="34" width="74.7421875" y="-17" x="-37.37109375" ry="0" rx="0" style="" class="basic label-container"/><g transform="translate(-29.87109375, -9.5)" style="" class="label"><text style=""><tspan class="row" x="0" dy="1em" xml:space="preserve">OUTPUT</tspan></text></g></g><g transform="translate(626.62109375, 410)" id="flowchart-V3-108" class="node default default"><rect height="34" width="38.546875" y="-17" x="-19.2734375" ry="0" rx="0" style="" class="basic label-container"/><g transform="translate(-11.7734375, -9.5)" style="" class="label"><text style=""><tspan class="row" x="0" dy="1em" xml:space="preserve">Var</tspan></text></g></g><g transform="translate(626.62109375, 494)" id="flowchart-i4-109" class="node default default"><rect height="34" width="19.5625" y="-17" x="-9.78125" ry="0" rx="0" style="" class="basic label-container"/><g transform="translate(-2.28125, -9.5)" style="" class="label"><text style=""><tspan class="row" x="0" dy="1em" xml:space="preserve">i</tspan></text></g></g><g transform="translate(759.51171875, 223)" id="flowchart-V4-111" class="node default default"><rect height="34" width="38.546875" y="-17" x="-19.2734375" ry="0" rx="0" style="" class="basic label-container"/><g transform="translate(-11.7734375, -9.5)" style="" class="label"><text style=""><tspan class="row" x="0" dy="1em" xml:space="preserve">Var</tspan></text></g></g><g transform="translate(723.7734375, 326)" id="flowchart-i5-113" class="node default default"><rect height="34" width="19.5625" y="-17" x="-9.78125" ry="0" rx="0" style="" class="basic label-container"/><g transform="translate(-2.28125, -9.5)" style="" class="label"><text style=""><tspan class="row" x="0" dy="1em" xml:space="preserve">i</tspan></text></g></g><g transform="translate(795.25, 326)" id="flowchart-plus-115" class="node default default"><rect height="34" width="23.390625" y="-17" x="-11.6953125" ry="0" rx="0" style="" class="basic label-container"/><g transform="translate(-4.1953125, -9.5)" style="" class="label"><text style=""><tspan class="row" x="0" dy="1em" xml:space="preserve">+</tspan></text></g></g><g transform="translate(750.462890625, 410)" id="flowchart-i6-117" class="node default default"><rect height="34" width="19.5625" y="-17" x="-9.78125" ry="0" rx="0" style="" class="basic label-container"/><g transform="translate(-2.28125, -9.5)" style="" class="label"><text style=""><tspan class="row" x="0" dy="1em" xml:space="preserve">i</tspan></text></g></g><g transform="translate(830.98828125, 410)" id="flowchart-lit-119" class="node default default"><rect height="34" width="23.390625" y="-17" x="-11.6953125" ry="0" rx="0" style="" class="basic label-container"/><g transform="translate(-4.1953125, -9.5)" style="" class="label"><text style=""><tspan class="row" x="0" dy="1em" xml:space="preserve">1</tspan></text></g></g></g></g></g></svg>