<svg aria-roledescription="classDiagram" role="graphics-document document" viewBox="0 0 337.9083557128906 830" style="max-width: 100%;" xmlns="http://www.w3.org/2000/svg" width="100%" id="graph-div" height="100%"><style>#graph-div{font-family:"trebuchet ms",verdana,arial,sans-serif;font-size:16px;fill:#333;}#graph-div .error-icon{fill:hsl(220.5882352941, 100%, 98.3333333333%);}#graph-div .error-text{fill:rgb(8.5000000002, 5.7500000001, 0);stroke:rgb(8.5000000002, 5.7500000001, 0);}#graph-div .edge-thickness-normal{stroke-width:2px;}#graph-div .edge-thickness-thick{stroke-width:3.5px;}#graph-div .edge-pattern-solid{stroke-dasharray:0;}#graph-div .edge-pattern-dashed{stroke-dasharray:3;}#graph-div .edge-pattern-dotted{stroke-dasharray:2;}#graph-div .marker{fill:#0b0b0b;stroke:#0b0b0b;}#graph-div .marker.cross{stroke:#0b0b0b;}#graph-div svg{font-family:"trebuchet ms",verdana,arial,sans-serif;font-size:16px;}#graph-div g.classGroup text{fill:hsl(40.5882352941, 60%, 83.3333333333%);fill:#333;stroke:none;font-family:"trebuchet ms",verdana,arial,sans-serif;font-size:10px;}#graph-div g.classGroup text .title{font-weight:bolder;}#graph-div .nodeLabel,#graph-div .edgeLabel{color:#333;}#graph-div .edgeLabel .label rect{fill:#fff4dd;}#graph-div .label text{fill:#333;}#graph-div .edgeLabel .label span{background:#fff4dd;}#graph-div .classTitle{font-weight:bolder;}#graph-div .node rect,#graph-div .node circle,#graph-div .node ellipse,#graph-div .node polygon,#graph-div .node path{fill:#fff4dd;stroke:hsl(40.5882352941, 60%, 83.3333333333%);stroke-width:1px;}#graph-div .divider{stroke:hsl(40.5882352941, 60%, 83.3333333333%);stroke:1;}#graph-div g.clickable{cursor:pointer;}#graph-div g.classGroup rect{fill:#fff4dd;stroke:hsl(40.5882352941, 60%, 83.3333333333%);}#graph-div g.classGroup line{stroke:hsl(40.5882352941, 60%, 83.3333333333%);stroke-width:1;}#graph-div .classLabel .box{stroke:none;stroke-width:0;fill:#fff4dd;opacity:0.5;}#graph-div .classLabel .label{fill:hsl(40.5882352941, 60%, 83.3333333333%);font-size:10px;}#graph-div .relation{stroke:#0b0b0b;stroke-width:1;fill:none;}#graph-div .dashed-line{stroke-dasharray:3;}#graph-div .dotted-line{stroke-dasharray:1 2;}#graph-div #compositionStart,#graph-div .composition{fill:#0b0b0b!important;stroke:#0b0b0b!important;stroke-width:1;}#graph-div #compositionEnd,#graph-div .composition{fill:#0b0b0b!important;stroke:#0b0b0b!important;stroke-width:1;}#graph-div #dependencyStart,#graph-div .dependency{fill:#0b0b0b!important;stroke:#0b0b0b!important;stroke-width:1;}#graph-div #dependencyStart,#graph-div .dependency{fill:#0b0b0b!important;stroke:#0b0b0b!important;stroke-width:1;}#graph-div #extensionStart,#graph-div .extension{fill:#fff4dd!important;stroke:#0b0b0b!important;stroke-width:1;}#graph-div #extensionEnd,#graph-div .extension{fill:#fff4dd!important;stroke:#0b0b0b!important;stroke-width:1;}#graph-div #aggregationStart,#graph-div .aggregation{fill:#fff4dd!important;stroke:#0b0b0b!important;stroke-width:1;}#graph-div #aggregationEnd,#graph-div .aggregation{fill:#fff4dd!important;stroke:#0b0b0b!important;stroke-width:1;}#graph-div #lollipopStart,#graph-div .lollipop{fill:#fff4dd!important;stroke:#0b0b0b!important;stroke-width:1;}#graph-div #lollipopEnd,#graph-div .lollipop{fill:#fff4dd!important;stroke:#0b0b0b!important;stroke-width:1;}#graph-div .edgeTerminals{font-size:11px;}#graph-div .classTitleText{text-anchor:middle;font-size:18px;fill:#333;}#graph-div :root{--mermaid-font-family:"trebuchet ms",verdana,arial,sans-serif;}</style><g><defs><marker orient="auto" markerHeight="240" markerWidth="190" refY="7" refX="0" class="marker aggregation classDiagram" id="classDiagram-aggregationStart"><path d="M 18,7 L9,13 L1,7 L9,1 Z"></path></marker></defs><defs><marker orient="auto" markerHeight="28" markerWidth="20" refY="7" refX="19" class="marker aggregation classDiagram" id="classDiagram-aggregationEnd"><path d="M 18,7 L9,13 L1,7 L9,1 Z"></path></marker></defs><defs><marker orient="auto" markerHeight="240" markerWidth="190" refY="7" refX="0" class="marker extension classDiagram" id="classDiagram-extensionStart"><path d="M 1,7 L18,13 V 1 Z"></path></marker></defs><defs><marker orient="auto" markerHeight="28" markerWidth="20" refY="7" refX="19" class="marker extension classDiagram" id="classDiagram-extensionEnd"><path d="M 1,1 V 13 L18,7 Z"></path></marker></defs><defs><marker orient="auto" markerHeight="240" markerWidth="190" refY="7" refX="0" class="marker composition classDiagram" id="classDiagram-compositionStart"><path d="M 18,7 L9,13 L1,7 L9,1 Z"></path></marker></defs><defs><marker orient="auto" markerHeight="28" markerWidth="20" refY="7" refX="19" class="marker composition classDiagram" id="classDiagram-compositionEnd"><path d="M 18,7 L9,13 L1,7 L9,1 Z"></path></marker></defs><defs><marker orient="auto" markerHeight="240" markerWidth="190" refY="7" refX="0" class="marker dependency classDiagram" id="classDiagram-dependencyStart"><path d="M 5,7 L9,13 L1,7 L9,1 Z"></path></marker></defs><defs><marker orient="auto" markerHeight="28" markerWidth="20" refY="7" refX="19" class="marker dependency classDiagram" id="classDiagram-dependencyEnd"><path d="M 18,7 L9,13 L14,7 L9,1 Z"></path></marker></defs><defs><marker orient="auto" markerHeight="240" markerWidth="190" refY="7" refX="0" class="marker lollipop classDiagram" id="classDiagram-lollipopStart"><circle r="6" cy="7" cx="6" fill="white" stroke="black"></circle></marker></defs><g class="root"><g class="clusters"></g><g class="edgePaths"><path marker-end="url(#classDiagram-dependencyEnd)" style="fill:none" class="edge-pattern-solid relation" id="id1" d="M220.86057216149788,174L218.51714365864976,178.16666666666666C216.17371515580166,182.33333333333334,211.4868581501054,190.66666666666666,209.1434296472573,199C206.80000114440918,207.33333333333334,206.80000114440918,215.66666666666666,206.80000114440918,219.83333333333334L206.80000114440918,224"></path><path marker-end="url(#classDiagram-dependencyEnd)" style="fill:none" class="edge-pattern-solid relation" id="id2" d="M63.71666717529297,606L63.71666717529297,610.1666666666666C63.71666717529297,614.3333333333334,63.71666717529297,622.6666666666666,67.66824900956802,631C71.61983084384306,639.3333333333334,79.52299451239315,647.6666666666666,83.4745763466682,651.8333333333334L87.42615818094325,656"></path><path marker-end="url(#classDiagram-dependencyEnd)" style="fill:none" class="edge-pattern-solid relation" id="id3" d="M114.92916774749756,714L114.92916774749756,718.1666666666666C114.92916774749756,722.3333333333334,114.92916774749756,730.6666666666666,123.22777891159058,740.2860812852418C131.5263900756836,749.905495903817,148.12361240386963,760.810991807634,156.42222356796265,766.2637397595425L164.72083473205566,771.716487711451"></path><path marker-end="url(#classDiagram-dependencyEnd)" style="fill:none" class="edge-pattern-solid relation" id="id4" d="M107.87500095367432,497.6031773539962L100.51527865727742,501.83598112833016C93.15555636088054,506.06878490266416,78.43611176808675,514.5343924513321,71.07638947168986,522.9338628923327C63.71666717529297,531.3333333333334,63.71666717529297,539.6666666666666,63.71666717529297,543.8333333333334L63.71666717529297,548"></path><path marker-end="url(#classDiagram-dependencyEnd)" style="fill:none" class="edge-pattern-solid relation" id="id5" d="M155.9032418462965,498L155.65825726367808,502.1666666666667C155.41327268105965,506.3333333333333,154.9233035158228,514.6666666666666,154.67831893320437,527.8333333333334C154.43333435058594,541,154.43333435058594,559,154.43333435058594,577C154.43333435058594,595,154.43333435058594,613,151.3851733472612,626.1666666666666C148.3370123439365,639.3333333333334,142.24069033728705,647.6666666666666,139.1925293339623,651.8333333333334L136.1443683306376,656"></path><path marker-end="url(#classDiagram-dependencyEnd)" style="fill:none" class="edge-pattern-solid relation" id="id6" d="M166.64398258703727,498L167.94220788096206,502.1666666666667C169.24043317488682,506.3333333333333,171.8368837627364,514.6666666666666,186.77260902487203,525.0400336681996C201.70833428700766,535.4134006697326,228.98333422342935,547.8268013394651,242.62083419164023,554.0335016743314L256.2583341598511,560.2402020091977"></path><path marker-end="url(#classDiagram-dependencyEnd)" style="fill:none" class="edge-pattern-solid relation" id="id7" d="M184.19390549483123,498L188.01367143642756,502.1666666666667C191.8334373780239,506.3333333333333,199.47296926121655,514.6666666666666,203.29273520281285,527.8333333333334C207.11250114440918,541,207.11250114440918,559,207.11250114440918,577C207.11250114440918,595,207.11250114440918,613,207.11250114440918,631C207.11250114440918,649,207.11250114440918,667,207.11250114440918,685C207.11250114440918,703,207.11250114440918,721,206.3408962061376,734.1666666666666C205.569291267866,747.3333333333334,204.02608139132278,755.6666666666666,203.25447645305118,759.8333333333334L202.48287151477956,764"></path><path marker-end="url(#classDiagram-dependencyEnd)" style="fill:none" class="edge-pattern-solid relation" id="id8" d="M181.05833435058594,281.2578351752608L177.15000104904175,285.54819597938405C173.24166774749756,289.8385567835072,165.42500114440918,298.4192783917536,161.516667842865,306.87630586254346C157.6083345413208,315.3333333333333,157.6083345413208,323.6666666666667,157.6083345413208,327.8333333333333L157.6083345413208,332"></path><path marker-end="url(#classDiagram-dependencyEnd)" style="fill:none" class="edge-pattern-solid relation" id="id9" d="M232.54166793823242,277.86116695520093L237.57014020284018,282.71763912933415C242.5986124674479,287.5741113034673,252.65555699666342,297.2870556517336,257.6840292612712,311.14352782586684C262.7125015258789,325,262.7125015258789,343,262.7125015258789,361C262.7125015258789,379,262.7125015258789,397,262.7125015258789,415C262.7125015258789,433,262.7125015258789,451,262.7125015258789,469C262.7125015258789,487,262.7125015258789,505,265.055930028727,518.1666666666666C267.39935853157516,531.3333333333334,272.08621553727136,539.6666666666666,274.4296440401195,543.8333333333334L276.7730725429676,548"></path><path marker-end="url(#classDiagram-dependencyEnd)" style="fill:none" class="edge-pattern-solid relation" id="id10" d="M157.6083345413208,390L157.6083345413208,394.1666666666667C157.6083345413208,398.3333333333333,157.6083345413208,406.6666666666667,157.6083345413208,415C157.6083345413208,423.3333333333333,157.6083345413208,431.6666666666667,157.6083345413208,435.8333333333333L157.6083345413208,440"></path><path marker-end="url(#classDiagram-dependencyEnd)" style="fill:none" class="edge-pattern-solid relation" id="id11" d="M298.4537052931609,548L299.2253102314325,543.8333333333334C299.9969151697041,539.6666666666666,301.54012504624734,531.3333333333334,302.31172998451893,518.1666666666666C303.0833349227905,505,303.0833349227905,487,303.0833349227905,469C303.0833349227905,451,303.0833349227905,433,303.0833349227905,415C303.0833349227905,397,303.0833349227905,379,303.0833349227905,361C303.0833349227905,343,303.0833349227905,325,303.0833349227905,307C303.0833349227905,289,303.0833349227905,271,303.0833349227905,253C303.0833349227905,235,303.0833349227905,217,297.9974938439734,203.83333333333334C292.9116527651563,190.66666666666666,282.7399706075221,182.33333333333334,277.65412952870497,178.16666666666666L272.56828844988786,174"></path><path marker-end="url(#classDiagram-dependencyEnd)" style="fill:none" class="edge-pattern-solid relation" id="id12" d="M271.5705262466713,606L268.4796054598726,610.1666666666666C265.38868467307384,614.3333333333334,259.2068430994764,622.6666666666666,238.1596722808885,633.8548159891585C217.11250146230063,645.0429653116503,181.20000139872232,659.0859306233004,163.2437513669332,666.1074132791256L145.28750133514404,673.1288959349507"></path><path marker-end="url(#classDiagram-dependencyEnd)" style="fill:none" class="edge-pattern-solid relation" id="id13" d="M298.4537052931609,606L299.2253102314325,610.1666666666666C299.9969151697041,614.3333333333334,301.54012504624734,622.6666666666666,302.31172998451893,635.8333333333334C303.0833349227905,649,303.0833349227905,667,303.0833349227905,685C303.0833349227905,703,303.0833349227905,721,290.8201403617859,736.2490072285281C278.55694580078125,751.498014457056,254.03055667877197,763.9960289141122,241.76736211776733,770.2450361426403L229.5041675567627,776.4940433711683"></path><path marker-end="url(#classDiagram-dependencyEnd)" style="fill:none" class="edge-pattern-solid relation" id="id14" d="M237.1708345413208,66L237.1708345413208,70.16666666666667C237.1708345413208,74.33333333333333,237.1708345413208,82.66666666666667,237.1708345413208,91C237.1708345413208,99.33333333333333,237.1708345413208,107.66666666666667,237.1708345413208,111.83333333333333L237.1708345413208,116"></path></g><g class="edgeLabels"><g class="edgeLabel"><g transform="translate(0, 0)" class="label"><rect height="0" width="0" ry="0" rx="0"></rect><text style=""><tspan class="row" x="0" dy="1em" xml:space="preserve"></tspan></text></g></g><g class="edgeLabel"><g transform="translate(0, 0)" class="label"><rect height="0" width="0" ry="0" rx="0"></rect><text style=""><tspan class="row" x="0" dy="1em" xml:space="preserve"></tspan></text></g></g><g class="edgeLabel"><g transform="translate(0, 0)" class="label"><rect height="0" width="0" ry="0" rx="0"></rect><text style=""><tspan class="row" x="0" dy="1em" xml:space="preserve"></tspan></text></g></g><g class="edgeLabel"><g transform="translate(0, 0)" class="label"><rect height="0" width="0" ry="0" rx="0"></rect><text style=""><tspan class="row" x="0" dy="1em" xml:space="preserve"></tspan></text></g></g><g class="edgeLabel"><g transform="translate(0, 0)" class="label"><rect height="0" width="0" ry="0" rx="0"></rect><text style=""><tspan class="row" x="0" dy="1em" xml:space="preserve"></tspan></text></g></g><g class="edgeLabel"><g transform="translate(0, 0)" class="label"><rect height="0" width="0" ry="0" rx="0"></rect><text style=""><tspan class="row" x="0" dy="1em" xml:space="preserve"></tspan></text></g></g><g class="edgeLabel"><g transform="translate(0, 0)" class="label"><rect height="0" width="0" ry="0" rx="0"></rect><text style=""><tspan class="row" x="0" dy="1em" xml:space="preserve"></tspan></text></g></g><g class="edgeLabel"><g transform="translate(0, 0)" class="label"><rect height="0" width="0" ry="0" rx="0"></rect><text style=""><tspan class="row" x="0" dy="1em" xml:space="preserve"></tspan></text></g></g><g class="edgeLabel"><g transform="translate(0, 0)" class="label"><rect height="0" width="0" ry="0" rx="0"></rect><text style=""><tspan class="row" x="0" dy="1em" xml:space="preserve"></tspan></text></g></g><g class="edgeLabel"><g transform="translate(0, 0)" class="label"><rect height="0" width="0" ry="0" rx="0"></rect><text style=""><tspan class="row" x="0" dy="1em" xml:space="preserve"></tspan></text></g></g><g class="edgeLabel"><g transform="translate(0, 0)" class="label"><rect height="0" width="0" ry="0" rx="0"></rect><text style=""><tspan class="row" x="0" dy="1em" xml:space="preserve"></tspan></text></g></g><g class="edgeLabel"><g transform="translate(0, 0)" class="label"><rect height="0" width="0" ry="0" rx="0"></rect><text style=""><tspan class="row" x="0" dy="1em" xml:space="preserve"></tspan></text></g></g><g class="edgeLabel"><g transform="translate(0, 0)" class="label"><rect height="0" width="0" ry="0" rx="0"></rect><text style=""><tspan class="row" x="0" dy="1em" xml:space="preserve"></tspan></text></g></g><g class="edgeLabel"><g transform="translate(0, 0)" class="label"><rect height="0" width="0" ry="0" rx="0"></rect><text style=""><tspan class="row" x="0" dy="1em" xml:space="preserve"></tspan></text></g></g></g><g class="nodes"><g transform="translate(237.1708345413208, 145)" id="classId-AQAInterpreter-117" class="node default"><rect height="58" width="130.76667022705078" y="-29" x="-65.38333511352539" class="outer title-state"></rect><line y2="2" y1="2" x2="65.38333511352539" x1="-65.38333511352539" class="divider"></line><line y2="18" y1="18" x2="65.38333511352539" x1="-65.38333511352539" class="divider"></line><g class="label"><text style=""><tspan class="title-row" x="0" dy="1em" xml:space="preserve"></tspan></text><text transform="translate( -57.88333511352539, -21.5)" class="classTitle" style=""><tspan class="title-row" x="0" dy="1em" xml:space="preserve">AQAInterpreter</tspan></text></g></g><g transform="translate(63.71666717529297, 577)" id="classId-environment-118" class="node default"><rect height="58" width="111.43333435058594" y="-29" x="-55.71666717529297" class="outer title-state"></rect><line y2="2" y1="2" x2="55.71666717529297" x1="-55.71666717529297" class="divider"></line><line y2="18" y1="18" x2="55.71666717529297" x1="-55.71666717529297" class="divider"></line><g class="label"><text style=""><tspan class="title-row" x="0" dy="1em" xml:space="preserve"></tspan></text><text transform="translate( -48.21666717529297, -21.5)" class="classTitle" style=""><tspan class="title-row" x="0" dy="1em" xml:space="preserve">environment</tspan></text></g></g><g transform="translate(114.92916774749756, 685)" id="classId-errors-119" class="node default"><rect height="58" width="60.71666717529297" y="-29" x="-30.358333587646484" class="outer title-state"></rect><line y2="2" y1="2" x2="30.358333587646484" x1="-30.358333587646484" class="divider"></line><line y2="18" y1="18" x2="30.358333587646484" x1="-30.358333587646484" class="divider"></line><g class="label"><text style=""><tspan class="title-row" x="0" dy="1em" xml:space="preserve"></tspan></text><text transform="translate( -22.858333587646484, -21.5)" class="classTitle" style=""><tspan class="title-row" x="0" dy="1em" xml:space="preserve">errors</tspan></text></g></g><g transform="translate(157.6083345413208, 469)" id="classId-interpreter-120" class="node default"><rect height="58" width="99.46666717529297" y="-29" x="-49.733333587646484" class="outer title-state"></rect><line y2="2" y1="2" x2="49.733333587646484" x1="-49.733333587646484" class="divider"></line><line y2="18" y1="18" x2="49.733333587646484" x1="-49.733333587646484" class="divider"></line><g class="label"><text style=""><tspan class="title-row" x="0" dy="1em" xml:space="preserve"></tspan></text><text transform="translate( -42.233333587646484, -21.5)" class="classTitle" style=""><tspan class="title-row" x="0" dy="1em" xml:space="preserve">interpreter</tspan></text></g></g><g transform="translate(206.80000114440918, 253)" id="classId-main-121" class="node default"><rect height="58" width="51.483333587646484" y="-29" x="-25.741666793823242" class="outer title-state"></rect><line y2="2" y1="2" x2="25.741666793823242" x1="-25.741666793823242" class="divider"></line><line y2="18" y1="18" x2="25.741666793823242" x1="-25.741666793823242" class="divider"></line><g class="label"><text style=""><tspan class="title-row" x="0" dy="1em" xml:space="preserve"></tspan></text><text transform="translate( -18.241666793823242, -21.5)" class="classTitle" style=""><tspan class="title-row" x="0" dy="1em" xml:space="preserve">main</tspan></text></g></g><g transform="translate(157.6083345413208, 361)" id="classId-parser-122" class="node default"><rect height="58" width="62.71666717529297" y="-29" x="-31.358333587646484" class="outer title-state"></rect><line y2="2" y1="2" x2="31.358333587646484" x1="-31.358333587646484" class="divider"></line><line y2="18" y1="18" x2="31.358333587646484" x1="-31.358333587646484" class="divider"></line><g class="label"><text style=""><tspan class="title-row" x="0" dy="1em" xml:space="preserve"></tspan></text><text transform="translate( -23.858333587646484, -21.5)" class="classTitle" style=""><tspan class="title-row" x="0" dy="1em" xml:space="preserve">parser</tspan></text></g></g><g transform="translate(293.0833349227905, 577)" id="classId-scanner-123" class="node default"><rect height="58" width="73.6500015258789" y="-29" x="-36.82500076293945" class="outer title-state"></rect><line y2="2" y1="2" x2="36.82500076293945" x1="-36.82500076293945" class="divider"></line><line y2="18" y1="18" x2="36.82500076293945" x1="-36.82500076293945" class="divider"></line><g class="label"><text style=""><tspan class="title-row" x="0" dy="1em" xml:space="preserve"></tspan></text><text transform="translate( -29.325000762939453, -21.5)" class="classTitle" style=""><tspan class="title-row" x="0" dy="1em" xml:space="preserve">scanner</tspan></text></g></g><g transform="translate(237.1708345413208, 37)" id="classId-test_-124" class="node default"><rect height="58" width="53.28333282470703" y="-29" x="-26.641666412353516" class="outer title-state"></rect><line y2="2" y1="2" x2="26.641666412353516" x1="-26.641666412353516" class="divider"></line><line y2="18" y1="18" x2="26.641666412353516" x1="-26.641666412353516" class="divider"></line><g class="label"><text style=""><tspan class="title-row" x="0" dy="1em" xml:space="preserve"></tspan></text><text transform="translate( -19.141666412353516, -21.5)" class="classTitle" style=""><tspan class="title-row" x="0" dy="1em" xml:space="preserve">test_</tspan></text></g></g><g transform="translate(197.11250114440918, 793)" id="classId-tokens-125" class="node default"><rect height="58" width="64.78333282470703" y="-29" x="-32.391666412353516" class="outer title-state"></rect><line y2="2" y1="2" x2="32.391666412353516" x1="-32.391666412353516" class="divider"></line><line y2="18" y1="18" x2="32.391666412353516" x1="-32.391666412353516" class="divider"></line><g class="label"><text style=""><tspan class="title-row" x="0" dy="1em" xml:space="preserve"></tspan></text><text transform="translate( -24.891666412353516, -21.5)" class="classTitle" style=""><tspan class="title-row" x="0" dy="1em" xml:space="preserve">tokens</tspan></text></g></g></g></g></g></svg>