<svg xmlns='http://www.w3.org/2000/svg' class="pikchr" viewBox="0 0 314.15 72.36">
<circle cx="5" cy="17" r="3.6"  style="fill:none;stroke-width:2.16;stroke:rgb(0,0,0);" />
<polygon points="45,17 33,21 33,12" style="fill:rgb(0,0,0)"/>
<path d="M9,17L39,17"  style="fill:none;stroke-width:2.16;stroke:rgb(0,0,0);" />
<path d="M60,32L115,32A15 15 0 0 0 130 17A15 15 0 0 0 115 2L60,2A15 15 0 0 0 45 17A15 15 0 0 0 60 32Z"  style="fill:none;stroke-width:2.16;stroke:rgb(0,0,0);" />
<text x="87" y="17" text-anchor="middle" fill="rgb(0,0,0)" dominant-baseline="central">OUTPUT</text>
<path d="M130,17L166,17"  style="fill:none;stroke-width:2.16;stroke:rgb(0,0,0);" />
<path d="M166,32L268,32L268,2L166,2Z"  style="fill:none;stroke-width:2.16;stroke:rgb(0,0,0);" />
<text x="217" y="17" text-anchor="middle" fill="rgb(0,0,0)" dominant-baseline="central">expression</text>
<polygon points="304,17 293,21 293,12" style="fill:rgb(0,0,0)"/>
<path d="M268,17L299,17"  style="fill:none;stroke-width:2.16;stroke:rgb(0,0,0);" />
<circle cx="308" cy="17" r="3.6"  style="fill:none;stroke-width:2.16;stroke:rgb(0,0,0);" />
<path d="M69,70L106,70A15 15 0 0 0 121 55L121,55A15 15 0 0 0 106 39L69,39A15 15 0 0 0 54 55L54,55A15 15 0 0 0 69 70Z"  style="fill:none;stroke-width:2.16;stroke:rgb(0,0,0);" />
<text x="87" y="55" text-anchor="middle" fill="rgb(0,0,0)" dominant-baseline="central">PRINT</text>
<polygon points="54,55 42,59 42,50" style="fill:rgb(0,0,0)"/>
<path d="M9,17 L 16,17 Q 24,17 24,32 L 24,40 Q 24,55 36,55 L 48,55"  style="fill:none;stroke-width:2.16;stroke:rgb(0,0,0);" />
<path d="M121,55 L 136,55 Q 151,55 151,40 L 151,32 Q 151,17 159,17 L 166,17"  style="fill:none;stroke-width:2.16;stroke:rgb(0,0,0);" />
</svg>
